<svg xmlns="http://www.w3.org/2000/svg" id="canvas" viewBox="120.715 343.989 478.387 101.857"><path d="M 135.25,360.64 C 134.57 361.14, 134.40 361.78, 134.05 363.02 C 133.70 364.27, 133.57 365.06, 133.50 366.88 C 133.42 368.70, 133.54 369.90, 133.68 372.12 C 133.83 374.35, 134.00 375.55, 134.21 378.02 C 134.42 380.49, 134.51 381.83, 134.73 384.48 C 134.95 387.12, 135.08 388.53, 135.31 391.25 C 135.55 393.96, 135.68 395.35, 135.91 398.06 C 136.14 400.77, 136.24 402.19, 136.47 404.80 C 136.70 407.42, 136.84 408.74, 137.06 411.14 C 137.28 413.53, 137.30 414.71, 137.55 416.78 C 137.80 418.85, 137.89 419.91, 138.32 421.50 C 138.75 423.08, 139.04 424.08, 139.70 424.70 C 140.36 425.31, 141.04 425.28, 141.62 424.58 C 142.20 423.89, 142.39 422.86, 142.61 421.22 C 142.84 419.59, 142.81 418.50, 142.75 416.40 C 142.70 414.29, 142.52 413.11, 142.35 410.70 C 142.17 408.30, 142.07 406.98, 141.87 404.37 C 141.68 401.75, 141.59 400.34, 141.39 397.63 C 141.19 394.92, 141.07 393.52, 140.87 390.80 C 140.68 388.09, 140.56 386.69, 140.40 384.07 C 140.24 381.44, 140.16 380.12, 140.07 377.67 C 139.98 375.22, 140.03 374.01, 139.95 371.81 C 139.87 369.60, 139.88 368.43, 139.67 366.64 C 139.45 364.85, 139.31 364.07, 138.86 362.85 C 138.42 361.63, 138.18 360.99, 137.46 360.55 C 136.74 360.11, 135.93 360.15, 135.25 360.64" style="stroke:#ffffff; fill:#ffffff;"/><path d="M 126.43,360.25 C 127.24 360.33, 127.69 359.83, 128.60 359.31 C 129.52 358.79, 129.88 358.42, 131.02 357.67 C 132.16 356.91, 132.76 356.29, 134.29 355.54 C 135.83 354.80, 136.71 354.46, 138.71 353.94 C 140.70 353.42, 141.89 353.17, 144.26 352.93 C 146.64 352.70, 147.98 352.66, 150.58 352.75 C 153.18 352.85, 154.58 352.91, 157.28 353.43 C 159.98 353.94, 161.42 354.32, 164.08 355.35 C 166.73 356.37, 168.10 357.02, 170.56 358.55 C 173.02 360.08, 174.24 361.02, 176.37 363.00 C 178.49 364.98, 179.50 366.13, 181.16 368.46 C 182.83 370.79, 183.55 372.07, 184.69 374.64 C 185.82 377.22, 186.26 378.61, 186.83 381.32 C 187.40 384.04, 187.54 385.46, 187.53 388.20 C 187.52 390.94, 187.36 392.38, 186.79 395.03 C 186.22 397.68, 185.78 399.03, 184.68 401.46 C 183.59 403.89, 182.91 405.06, 181.31 407.20 C 179.71 409.33, 178.73 410.33, 176.69 412.15 C 174.64 413.96, 173.48 414.81, 171.08 416.26 C 168.68 417.71, 167.34 418.35, 164.68 419.39 C 162.02 420.43, 160.55 420.84, 157.80 421.44 C 155.04 422.05, 153.59 422.22, 150.90 422.41 C 148.21 422.61, 146.83 422.58, 144.35 422.42 C 141.87 422.26, 140.64 422.08, 138.52 421.62 C 136.40 421.15, 135.39 420.77, 133.75 420.07 C 132.12 419.38, 131.39 418.94, 130.36 418.15 C 129.33 417.36, 128.96 416.93, 128.58 416.12 C 128.21 415.31, 128.23 414.94, 128.49 414.09 C 128.74 413.24, 129.28 412.77, 129.86 411.86 C 130.44 410.94, 130.92 410.51, 131.38 409.51 C 131.85 408.52, 132.33 407.75, 132.21 406.90 C 132.08 406.05, 131.64 405.43, 130.75 405.28 C 129.85 405.13, 128.88 405.38, 127.73 406.13 C 126.58 406.89, 125.81 407.59, 125.02 409.05 C 124.22 410.52, 123.82 411.71, 123.73 413.47 C 123.65 415.24, 123.88 416.25, 124.60 417.89 C 125.31 419.53, 125.89 420.32, 127.30 421.66 C 128.71 423.00, 129.66 423.60, 131.66 424.59 C 133.67 425.58, 134.87 426.01, 137.34 426.62 C 139.80 427.24, 141.19 427.46, 143.99 427.66 C 146.78 427.87, 148.32 427.90, 151.31 427.65 C 154.30 427.40, 155.88 427.13, 158.92 426.41 C 161.97 425.70, 163.57 425.25, 166.52 424.09 C 169.48 422.93, 170.98 422.22, 173.69 420.60 C 176.40 418.97, 177.72 418.03, 180.06 415.97 C 182.41 413.90, 183.55 412.75, 185.41 410.27 C 187.27 407.78, 188.08 406.39, 189.35 403.56 C 190.62 400.72, 191.12 399.15, 191.76 396.08 C 192.41 393.01, 192.57 391.36, 192.56 388.20 C 192.55 385.04, 192.37 383.40, 191.69 380.29 C 191.02 377.18, 190.50 375.58, 189.19 372.65 C 187.88 369.71, 187.04 368.26, 185.14 365.62 C 183.25 362.97, 182.10 361.68, 179.72 359.43 C 177.33 357.18, 175.95 356.12, 173.20 354.36 C 170.46 352.60, 168.93 351.85, 165.97 350.62 C 163.01 349.39, 161.41 348.91, 158.39 348.21 C 155.38 347.50, 153.81 347.29, 150.88 347.10 C 147.95 346.90, 146.45 346.99, 143.73 347.22 C 141.02 347.46, 139.72 347.71, 137.31 348.28 C 134.90 348.85, 133.68 349.12, 131.68 350.06 C 129.68 351.00, 128.66 351.77, 127.31 352.99 C 125.96 354.21, 125.50 354.96, 124.95 356.15 C 124.39 357.34, 124.24 358.12, 124.53 358.94 C 124.83 359.76, 125.61 360.18, 126.43 360.25" style="stroke:#ffffff; fill:#ffffff;"/><path d="M 198.38,409.03 C 198.94 409.49, 199.27 409.50, 200.15 409.51 C 201.03 409.53, 201.58 409.50, 202.78 409.09 C 203.98 408.67, 204.72 408.24, 206.15 407.44 C 207.58 406.64, 208.39 406.11, 209.93 405.10 C 211.47 404.09, 212.33 403.52, 213.85 402.39 C 215.38 401.26, 216.19 400.67, 217.53 399.45 C 218.88 398.22, 219.57 397.57, 220.58 396.26 C 221.60 394.96, 222.08 394.30, 222.61 392.91 C 223.14 391.52, 223.34 390.72, 223.25 389.32 C 223.15 387.91, 222.91 387.10, 222.14 385.90 C 221.36 384.70, 220.73 384.11, 219.38 383.32 C 218.03 382.54, 217.14 382.24, 215.37 381.99 C 213.60 381.74, 212.54 381.79, 210.51 382.07 C 208.49 382.34, 207.36 382.64, 205.22 383.38 C 203.08 384.13, 201.92 384.64, 199.83 385.79 C 197.73 386.95, 196.63 387.66, 194.74 389.16 C 192.85 390.67, 191.89 391.52, 190.36 393.32 C 188.83 395.11, 188.09 396.12, 187.10 398.13 C 186.12 400.15, 185.73 401.25, 185.44 403.38 C 185.15 405.52, 185.16 406.67, 185.65 408.79 C 186.14 410.91, 186.59 412.05, 187.89 413.98 C 189.18 415.91, 190.10 416.87, 192.11 418.45 C 194.12 420.03, 195.37 420.74, 197.93 421.88 C 200.49 423.02, 201.98 423.50, 204.91 424.14 C 207.84 424.77, 209.49 424.89, 212.59 425.06 C 215.68 425.24, 217.34 425.22, 220.38 425.02 C 223.42 424.83, 224.96 424.67, 227.79 424.11 C 230.62 423.55, 232.04 423.13, 234.53 422.23 C 237.03 421.32, 238.24 420.77, 240.27 419.58 C 242.30 418.38, 243.17 417.69, 244.68 416.24 C 246.20 414.79, 246.85 413.97, 247.83 412.32 C 248.81 410.66, 249.12 409.73, 249.59 407.97 C 250.05 406.22, 250.07 405.28, 250.13 403.56 C 250.19 401.84, 250.09 400.95, 249.90 399.36 C 249.70 397.78, 249.45 396.96, 249.14 395.63 C 248.83 394.31, 248.83 393.63, 248.34 392.74 C 247.86 391.84, 247.51 391.41, 246.70 391.16 C 245.89 390.91, 245.06 390.97, 244.29 391.50 C 243.53 392.02, 243.11 392.64, 242.89 393.78 C 242.66 394.91, 242.83 395.67, 243.17 397.18 C 243.51 398.70, 244.01 399.61, 244.60 401.37 C 245.18 403.13, 245.49 404.18, 246.09 405.99 C 246.69 407.79, 247.05 408.75, 247.60 410.38 C 248.14 412.01, 248.24 412.90, 248.82 414.16 C 249.39 415.41, 249.68 416.10, 250.47 416.64 C 251.26 417.19, 251.95 417.15, 252.78 416.86 C 253.61 416.58, 254.15 416.16, 254.64 415.23 C 255.13 414.30, 255.31 413.56, 255.25 412.20 C 255.18 410.84, 254.74 409.97, 254.31 408.41 C 253.89 406.85, 253.52 405.99, 253.13 404.40 C 252.74 402.81, 252.56 401.99, 252.39 400.48 C 252.21 398.96, 252.19 398.22, 252.24 396.83 C 252.28 395.43, 252.35 394.71, 252.60 393.48 C 252.85 392.25, 253.04 391.68, 253.50 390.67 C 253.95 389.67, 254.25 389.22, 254.89 388.46 C 255.53 387.71, 255.89 387.37, 256.69 386.91 C 257.48 386.44, 257.90 386.28, 258.86 386.12 C 259.81 385.96, 260.35 385.95, 261.45 386.09 C 262.55 386.23, 263.18 386.34, 264.35 386.81 C 265.52 387.28, 266.14 387.61, 267.29 388.43 C 268.45 389.26, 269.07 389.78, 270.14 390.92 C 271.20 392.06, 271.73 392.74, 272.61 394.14 C 273.50 395.54, 273.90 396.37, 274.56 397.94 C 275.22 399.51, 275.48 400.38, 275.93 401.98 C 276.38 403.58, 276.54 404.50, 276.81 405.95 C 277.09 407.39, 277.04 408.12, 277.29 409.23 C 277.54 410.33, 277.56 410.87, 278.06 411.47 C 278.56 412.06, 279.04 412.20, 279.79 412.19 C 280.54 412.17, 281.16 411.97, 281.80 411.38 C 282.45 410.79, 282.75 410.32, 283.02 409.23 C 283.29 408.15, 283.12 407.36, 283.16 405.95 C 283.20 404.55, 283.09 403.71, 283.22 402.21 C 283.35 400.71, 283.45 399.91, 283.80 398.46 C 284.15 397.00, 284.42 396.26, 284.97 394.93 C 285.52 393.59, 285.86 392.92, 286.57 391.77 C 287.28 390.63, 287.71 390.08, 288.51 389.19 C 289.31 388.31, 289.75 387.90, 290.57 387.35 C 291.39 386.80, 291.78 386.60, 292.59 386.43 C 293.41 386.26, 293.83 386.30, 294.65 386.50 C 295.48 386.70, 295.90 386.86, 296.74 387.42 C 297.57 387.98, 297.99 388.35, 298.83 389.31 C 299.68 390.27, 300.12 390.89, 300.96 392.22 C 301.79 393.55, 302.21 394.34, 303.00 395.96 C 303.79 397.58, 304.15 398.51, 304.89 400.31 C 305.64 402.11, 305.99 403.11, 306.73 404.96 C 307.46 406.81, 307.79 407.81, 308.56 409.56 C 309.34 411.31, 309.79 412.29, 310.62 413.72 C 311.46 415.16, 311.92 415.85, 312.74 416.75 C 313.55 417.65, 314.01 417.86, 314.71 418.22 C 315.40 418.58, 315.71 418.66, 316.20 418.55 C 316.70 418.44, 316.99 418.10, 317.19 417.66 C 317.39 417.22, 317.28 417.02, 317.19 416.34 C 317.10 415.66, 317.10 415.29, 316.73 414.27 C 316.36 413.26, 315.97 412.65, 315.34 411.27 C 314.71 409.90, 314.28 409.06, 313.59 407.40 C 312.91 405.74, 312.59 404.80, 311.90 402.96 C 311.21 401.12, 310.89 400.09, 310.14 398.19 C 309.40 396.29, 309.04 395.28, 308.17 393.46 C 307.29 391.64, 306.84 390.70, 305.77 389.10 C 304.70 387.50, 304.10 386.71, 302.83 385.47 C 301.55 384.23, 300.84 383.67, 299.39 382.90 C 297.94 382.12, 297.13 381.83, 295.58 381.58 C 294.03 381.33, 293.16 381.36, 291.64 381.65 C 290.12 381.95, 289.35 382.29, 287.97 383.07 C 286.59 383.86, 285.92 384.41, 284.75 385.57 C 283.57 386.74, 283.04 387.47, 282.09 388.90 C 281.14 390.34, 280.75 391.16, 280.02 392.76 C 279.28 394.37, 278.98 395.23, 278.43 396.92 C 277.88 398.62, 277.68 399.53, 277.28 401.23 C 276.87 402.92, 276.62 403.83, 276.42 405.40 C 276.21 406.97, 276.03 407.85, 276.25 409.09 C 276.48 410.34, 276.82 410.94, 277.54 411.62 C 278.25 412.30, 279.00 412.52, 279.83 412.49 C 280.67 412.45, 281.23 412.19, 281.72 411.46 C 282.22 410.74, 282.24 410.14, 282.32 408.87 C 282.40 407.60, 282.34 406.78, 282.12 405.11 C 281.91 403.45, 281.74 402.40, 281.24 400.53 C 280.75 398.67, 280.43 397.67, 279.65 395.80 C 278.86 393.93, 278.41 392.91, 277.32 391.18 C 276.23 389.44, 275.57 388.59, 274.20 387.13 C 272.84 385.67, 272.07 384.98, 270.49 383.88 C 268.92 382.78, 268.04 382.28, 266.33 381.65 C 264.62 381.01, 263.65 380.83, 261.94 380.71 C 260.23 380.60, 259.36 380.69, 257.79 381.06 C 256.21 381.44, 255.43 381.76, 254.08 382.58 C 252.74 383.39, 252.11 383.96, 251.07 385.14 C 250.03 386.32, 249.59 387.03, 248.88 388.48 C 248.17 389.92, 247.91 390.75, 247.53 392.37 C 247.16 393.98, 247.11 394.86, 247.00 396.56 C 246.89 398.26, 246.92 399.11, 246.97 400.86 C 247.03 402.61, 247.13 403.55, 247.27 405.32 C 247.41 407.10, 247.47 408.08, 247.69 409.74 C 247.91 411.41, 247.90 412.38, 248.39 413.65 C 248.88 414.92, 249.36 415.52, 250.15 416.10 C 250.94 416.69, 251.60 416.71, 252.33 416.58 C 253.07 416.44, 253.51 416.22, 253.83 415.44 C 254.15 414.66, 254.10 414.01, 253.93 412.68 C 253.76 411.35, 253.40 410.47, 252.98 408.80 C 252.56 407.14, 252.25 406.18, 251.83 404.37 C 251.41 402.55, 251.23 401.51, 250.87 399.71 C 250.51 397.91, 250.49 396.84, 250.04 395.37 C 249.60 393.89, 249.35 393.22, 248.63 392.34 C 247.90 391.47, 247.33 391.11, 246.41 390.99 C 245.49 390.86, 244.67 391.12, 244.03 391.71 C 243.39 392.30, 243.26 392.94, 243.23 393.96 C 243.19 394.97, 243.61 395.57, 243.87 396.80 C 244.12 398.03, 244.30 398.75, 244.50 400.10 C 244.70 401.44, 244.82 402.19, 244.87 403.54 C 244.92 404.90, 244.98 405.59, 244.75 406.87 C 244.52 408.14, 244.38 408.74, 243.71 409.91 C 243.04 411.08, 242.58 411.67, 241.41 412.74 C 240.23 413.80, 239.54 414.32, 237.82 415.23 C 236.11 416.15, 235.04 416.57, 232.83 417.30 C 230.62 418.02, 229.32 418.37, 226.77 418.85 C 224.21 419.34, 222.82 419.55, 220.05 419.72 C 217.29 419.88, 215.73 419.91, 212.96 419.68 C 210.18 419.45, 208.72 419.19, 206.17 418.59 C 203.62 417.98, 202.34 417.58, 200.20 416.66 C 198.06 415.75, 197.05 415.16, 195.44 414.02 C 193.83 412.87, 193.15 412.22, 192.15 410.94 C 191.15 409.66, 190.82 408.97, 190.45 407.61 C 190.08 406.24, 190.05 405.53, 190.29 404.11 C 190.53 402.69, 190.83 401.95, 191.65 400.51 C 192.47 399.06, 193.09 398.28, 194.38 396.90 C 195.68 395.51, 196.51 394.79, 198.14 393.59 C 199.77 392.38, 200.75 391.80, 202.54 390.88 C 204.34 389.95, 205.36 389.55, 207.13 388.96 C 208.90 388.37, 209.85 388.17, 211.38 387.92 C 212.92 387.67, 213.65 387.67, 214.82 387.71 C 215.98 387.74, 216.45 387.90, 217.21 388.08 C 217.98 388.26, 218.27 388.35, 218.63 388.61 C 218.99 388.88, 219.07 388.97, 219.02 389.42 C 218.98 389.88, 218.86 390.19, 218.39 390.89 C 217.93 391.58, 217.59 392.02, 216.71 392.90 C 215.83 393.77, 215.21 394.31, 213.98 395.26 C 212.76 396.22, 212.01 396.75, 210.58 397.67 C 209.14 398.60, 208.31 399.08, 206.81 399.88 C 205.31 400.69, 204.45 401.00, 203.07 401.72 C 201.68 402.44, 200.90 402.75, 199.88 403.49 C 198.86 404.22, 198.47 404.64, 197.96 405.38 C 197.46 406.13, 197.27 406.49, 197.35 407.22 C 197.44 407.95, 197.82 408.57, 198.38 409.03" style="stroke:#ffffff; fill:#ffffff;"/><path d="M 347.95,391.41 C 348.33 390.68, 348.29 390.04, 347.92 389.14 C 347.55 388.25, 347.12 387.69, 346.11 386.94 C 345.09 386.20, 344.28 385.80, 342.86 385.43 C 341.44 385.05, 340.61 385.05, 339.01 385.09 C 337.42 385.13, 336.56 385.22, 334.87 385.62 C 333.17 386.02, 332.24 386.32, 330.54 387.09 C 328.84 387.86, 327.95 388.36, 326.36 389.47 C 324.77 390.59, 323.94 391.25, 322.59 392.66 C 321.25 394.07, 320.59 394.88, 319.61 396.54 C 318.64 398.20, 318.20 399.13, 317.73 400.96 C 317.26 402.78, 317.12 403.79, 317.28 405.67 C 317.44 407.54, 317.69 408.58, 318.53 410.33 C 319.37 412.08, 320.01 412.99, 321.48 414.43 C 322.95 415.88, 323.91 416.53, 325.89 417.56 C 327.87 418.59, 329.06 419.01, 331.39 419.59 C 333.71 420.17, 335.01 420.35, 337.53 420.47 C 340.04 420.60, 341.44 420.52, 343.96 420.21 C 346.47 419.90, 347.78 419.61, 350.09 418.92 C 352.39 418.23, 353.51 417.77, 355.47 416.75 C 357.42 415.73, 358.38 415.15, 359.85 413.84 C 361.33 412.54, 361.95 411.78, 362.86 410.22 C 363.77 408.66, 364.13 407.78, 364.41 406.06 C 364.69 404.34, 364.64 403.34, 364.27 401.61 C 363.89 399.88, 363.46 398.97, 362.53 397.42 C 361.61 395.87, 360.94 395.14, 359.63 393.87 C 358.32 392.60, 357.48 392.03, 355.99 391.08 C 354.50 390.12, 353.67 389.63, 352.18 389.12 C 350.69 388.60, 349.78 388.48, 348.55 388.49 C 347.32 388.51, 346.63 388.69, 346.04 389.20 C 345.45 389.71, 345.36 390.32, 345.61 391.02 C 345.87 391.72, 346.45 392.08, 347.32 392.71 C 348.20 393.34, 348.86 393.57, 349.99 394.18 C 351.12 394.79, 351.81 395.03, 352.97 395.78 C 354.12 396.53, 354.78 397.02, 355.78 397.93 C 356.78 398.85, 357.25 399.36, 357.96 400.36 C 358.67 401.36, 358.96 401.92, 359.31 402.93 C 359.67 403.94, 359.82 404.44, 359.73 405.41 C 359.64 406.38, 359.46 406.86, 358.86 407.79 C 358.26 408.72, 357.86 409.21, 356.73 410.07 C 355.59 410.93, 354.82 411.37, 353.20 412.09 C 351.58 412.82, 350.60 413.20, 348.63 413.70 C 346.65 414.21, 345.49 414.40, 343.32 414.62 C 341.16 414.84, 339.93 414.90, 337.81 414.79 C 335.69 414.68, 334.62 414.52, 332.73 414.08 C 330.84 413.63, 329.89 413.27, 328.37 412.56 C 326.84 411.86, 326.16 411.45, 325.11 410.54 C 324.06 409.64, 323.69 409.10, 323.13 408.04 C 322.56 406.98, 322.38 406.39, 322.29 405.25 C 322.20 404.11, 322.29 403.51, 322.66 402.32 C 323.03 401.14, 323.37 400.49, 324.14 399.33 C 324.90 398.17, 325.42 397.56, 326.49 396.52 C 327.57 395.47, 328.25 394.96, 329.52 394.13 C 330.80 393.29, 331.53 392.92, 332.87 392.35 C 334.21 391.78, 334.95 391.57, 336.22 391.26 C 337.49 390.95, 338.19 390.84, 339.22 390.79 C 340.25 390.73, 340.64 390.78, 341.38 390.98 C 342.11 391.19, 342.32 391.50, 342.89 391.80 C 343.46 392.11, 343.61 392.31, 344.23 392.50 C 344.86 392.70, 345.26 393.00, 346.00 392.78 C 346.75 392.56, 347.56 392.13, 347.95 391.41" style="stroke:#ffffff; fill:#ffffff;"/><path d="M 427.13,367.18 C 426.47 367.62, 426.30 368.13, 426.01 369.18 C 425.71 370.22, 425.63 370.89, 425.65 372.41 C 425.66 373.94, 425.86 374.92, 426.09 376.81 C 426.31 378.70, 426.54 379.71, 426.78 381.87 C 427.02 384.04, 427.09 385.21, 427.29 387.63 C 427.49 390.05, 427.59 391.40, 427.79 393.96 C 428.00 396.51, 428.12 397.85, 428.31 400.42 C 428.51 402.98, 428.60 404.33, 428.77 406.79 C 428.95 409.25, 428.99 410.51, 429.19 412.72 C 429.40 414.94, 429.43 416.04, 429.81 417.86 C 430.20 419.67, 430.44 421.02, 431.12 421.80 C 431.81 422.58, 432.59 422.58, 433.24 421.75 C 433.89 420.93, 434.13 419.56, 434.38 417.70 C 434.64 415.83, 434.55 414.68, 434.52 412.43 C 434.49 410.18, 434.34 408.93, 434.21 406.45 C 434.08 403.97, 434.02 402.63, 433.87 400.05 C 433.72 397.46, 433.64 396.12, 433.47 393.55 C 433.31 390.98, 433.20 389.63, 433.04 387.20 C 432.88 384.76, 432.80 383.57, 432.66 381.37 C 432.52 379.16, 432.53 378.08, 432.36 376.15 C 432.18 374.22, 432.12 373.21, 431.79 371.72 C 431.47 370.23, 431.23 369.64, 430.73 368.69 C 430.23 367.75, 430.01 367.30, 429.29 366.99 C 428.57 366.69, 427.78 366.74, 427.13 367.18" style="stroke:#ffffff; fill:#ffffff;"/><path d="M 419.20,366.42 C 420.07 366.28, 420.52 365.56, 421.41 364.75 C 422.31 363.94, 422.65 363.36, 423.70 362.36 C 424.75 361.37, 425.29 360.64, 426.68 359.78 C 428.07 358.91, 428.87 358.56, 430.64 358.03 C 432.41 357.50, 433.49 357.33, 435.52 357.13 C 437.54 356.94, 438.70 356.91, 440.77 357.05 C 442.83 357.19, 443.92 357.32, 445.84 357.82 C 447.77 358.33, 448.74 358.72, 450.39 359.57 C 452.04 360.42, 452.83 360.97, 454.10 362.07 C 455.36 363.17, 455.92 363.79, 456.70 365.06 C 457.47 366.33, 457.72 367.01, 457.95 368.40 C 458.18 369.80, 458.13 370.55, 457.85 372.05 C 457.57 373.55, 457.30 374.36, 456.53 375.90 C 455.76 377.44, 455.23 378.25, 454.00 379.75 C 452.77 381.26, 451.98 382.05, 450.38 383.43 C 448.78 384.81, 447.84 385.50, 445.99 386.67 C 444.14 387.84, 443.06 388.36, 441.12 389.29 C 439.18 390.22, 438.10 390.63, 436.29 391.30 C 434.48 391.98, 433.57 392.23, 432.09 392.66 C 430.60 393.08, 429.87 393.05, 428.85 393.42 C 427.82 393.80, 427.43 393.92, 426.96 394.54 C 426.49 395.15, 426.44 395.67, 426.50 396.49 C 426.56 397.32, 426.65 397.94, 427.25 398.67 C 427.86 399.40, 428.34 399.63, 429.52 400.14 C 430.71 400.64, 431.52 400.64, 433.17 401.19 C 434.83 401.75, 435.82 402.07, 437.79 402.92 C 439.76 403.76, 440.85 404.30, 443.04 405.41 C 445.24 406.52, 446.44 407.18, 448.77 408.48 C 451.10 409.77, 452.32 410.48, 454.68 411.89 C 457.05 413.30, 458.22 414.10, 460.58 415.53 C 462.95 416.97, 464.17 417.74, 466.52 419.08 C 468.87 420.43, 470.02 421.10, 472.34 422.26 C 474.66 423.43, 475.81 424.01, 478.11 424.92 C 480.41 425.83, 481.59 426.24, 483.85 426.81 C 486.11 427.37, 487.23 427.58, 489.43 427.74 C 491.62 427.90, 492.75 427.87, 494.82 427.60 C 496.88 427.33, 497.91 427.07, 499.77 426.38 C 501.63 425.68, 502.51 425.20, 504.10 424.10 C 505.69 423.01, 506.46 422.33, 507.71 420.88 C 508.96 419.43, 509.50 418.58, 510.37 416.87 C 511.23 415.16, 511.57 414.20, 512.02 412.34 C 512.48 410.48, 512.62 409.46, 512.64 407.57 C 512.67 405.67, 512.55 404.67, 512.16 402.87 C 511.76 401.06, 511.46 400.16, 510.67 398.55 C 509.88 396.94, 509.35 396.15, 508.20 394.82 C 507.06 393.49, 506.37 392.87, 504.93 391.91 C 503.49 390.95, 502.66 390.54, 501.01 390.02 C 499.37 389.50, 498.45 389.34, 496.71 389.32 C 494.96 389.30, 494.02 389.42, 492.31 389.94 C 490.60 390.46, 489.69 390.88, 488.17 391.92 C 486.64 392.96, 485.89 393.64, 484.69 395.15 C 483.49 396.65, 482.91 397.57, 482.15 399.44 C 481.40 401.31, 481.10 402.41, 480.93 404.51 C 480.75 406.61, 480.82 407.78, 481.30 409.94 C 481.77 412.11, 482.16 413.27, 483.30 415.35 C 484.44 417.42, 485.23 418.49, 487.01 420.32 C 488.79 422.15, 489.88 423.02, 492.21 424.49 C 494.53 425.97, 495.87 426.65, 498.63 427.69 C 501.39 428.73, 502.99 429.12, 506.01 429.70 C 509.04 430.28, 510.67 430.42, 513.75 430.59 C 516.82 430.75, 518.44 430.76, 521.39 430.51 C 524.33 430.26, 525.83 429.99, 528.48 429.35 C 531.13 428.71, 532.40 428.26, 534.64 427.30 C 536.87 426.33, 537.91 425.79, 539.65 424.52 C 541.39 423.26, 542.15 422.50, 543.32 420.97 C 544.49 419.44, 544.94 418.58, 545.50 416.87 C 546.07 415.16, 546.18 414.20, 546.15 412.43 C 546.12 410.65, 545.90 409.70, 545.35 408.00 C 544.80 406.30, 544.35 405.44, 543.38 403.92 C 542.41 402.41, 541.75 401.67, 540.50 400.41 C 539.25 399.15, 538.54 398.59, 537.13 397.62 C 535.71 396.66, 534.93 396.21, 533.42 395.58 C 531.90 394.95, 531.08 394.70, 529.54 394.48 C 528.00 394.25, 527.21 394.22, 525.72 394.46 C 524.23 394.69, 523.42 394.91, 522.10 395.66 C 520.79 396.40, 520.14 396.96, 519.15 398.20 C 518.17 399.44, 517.71 400.20, 517.19 401.83 C 516.66 403.46, 516.51 404.47, 516.54 406.35 C 516.57 408.23, 516.75 409.28, 517.34 411.23 C 517.93 413.19, 518.35 414.23, 519.50 416.12 C 520.65 418.02, 521.43 419.01, 523.09 420.71 C 524.75 422.41, 525.71 423.21, 527.80 424.62 C 529.89 426.04, 531.09 426.72, 533.53 427.77 C 535.97 428.82, 537.35 429.26, 539.99 429.88 C 542.63 430.50, 544.03 430.71, 546.73 430.88 C 549.43 431.05, 550.88 431.03, 553.50 430.74 C 556.12 430.45, 557.43 430.16, 559.82 429.43 C 562.22 428.71, 563.39 428.26, 565.47 427.11 C 567.55 425.97, 568.56 425.25, 570.23 423.71 C 571.90 422.18, 572.63 421.29, 573.83 419.43 C 575.04 417.57, 575.52 416.51, 576.25 414.42 C 576.98 412.34, 577.19 411.21, 577.48 409.01 C 577.77 406.81, 577.76 405.65, 577.69 403.42 C 577.61 401.20, 577.45 400.07, 577.09 397.90 C 576.73 395.73, 576.45 394.64, 575.88 392.59 C 575.32 390.54, 574.97 389.54, 574.29 387.66 C 573.61 385.78, 573.22 384.88, 572.49 383.21 C 571.76 381.54, 571.37 380.73, 570.64 379.32 C 569.90 377.91, 569.57 377.22, 568.83 376.16 C 568.09 375.09, 567.79 374.54, 566.92 374.00 C 566.05 373.46, 565.46 373.31, 564.48 373.45 C 563.51 373.59, 562.78 373.91, 562.04 374.71 C 561.30 375.51, 560.98 376.12, 560.78 377.45 C 560.59 378.78, 560.79 379.60, 561.06 381.35 C 561.33 383.10, 561.64 384.10, 562.13 386.22 C 562.62 388.34, 562.91 389.55, 563.52 391.95 C 564.13 394.35, 564.46 395.64, 565.18 398.22 C 565.89 400.79, 566.24 402.17, 567.09 404.83 C 567.94 407.50, 568.41 408.91, 569.42 411.55 C 570.43 414.19, 570.98 415.52, 572.15 418.04 C 573.32 420.56, 573.96 421.83, 575.29 424.16 C 576.62 426.50, 577.35 427.64, 578.79 429.70 C 580.23 431.75, 580.99 432.71, 582.48 434.45 C 583.96 436.18, 584.75 437.01, 586.23 438.39 C 587.72 439.77, 588.51 440.48, 589.91 441.35 C 591.31 442.21, 592.10 442.47, 593.21 442.71 C 594.32 442.95, 594.88 442.86, 595.45 442.55 C 596.03 442.25, 596.16 441.78, 596.08 441.18 C 596.01 440.57, 595.70 440.31, 595.08 439.53 C 594.45 438.76, 594.01 438.28, 592.95 437.30 C 591.88 436.32, 591.06 435.86, 589.75 434.63 C 588.44 433.39, 587.73 432.70, 586.40 431.12 C 585.08 429.53, 584.42 428.63, 583.12 426.72 C 581.83 424.80, 581.16 423.73, 579.94 421.54 C 578.73 419.36, 578.13 418.18, 577.05 415.79 C 575.98 413.41, 575.49 412.15, 574.57 409.62 C 573.65 407.10, 573.22 405.75, 572.45 403.18 C 571.68 400.60, 571.35 399.27, 570.72 396.75 C 570.09 394.24, 569.80 392.96, 569.30 390.61 C 568.81 388.26, 568.59 387.07, 568.25 385.00 C 567.91 382.94, 567.89 381.91, 567.61 380.29 C 567.33 378.66, 567.27 377.87, 566.85 376.88 C 566.44 375.89, 566.09 375.63, 565.55 375.33 C 565.00 375.04, 564.50 375.15, 564.12 375.41 C 563.75 375.66, 563.57 375.94, 563.65 376.59 C 563.73 377.25, 564.05 377.68, 564.52 378.68 C 564.99 379.69, 565.38 380.31, 566.01 381.62 C 566.64 382.94, 567.00 383.71, 567.66 385.27 C 568.31 386.84, 568.66 387.70, 569.26 389.44 C 569.87 391.18, 570.18 392.12, 570.67 393.99 C 571.16 395.86, 571.41 396.86, 571.72 398.79 C 572.04 400.71, 572.17 401.72, 572.25 403.63 C 572.33 405.55, 572.33 406.54, 572.14 408.37 C 571.95 410.19, 571.80 411.09, 571.28 412.76 C 570.75 414.42, 570.41 415.25, 569.52 416.69 C 568.62 418.14, 568.10 418.80, 566.81 419.98 C 565.51 421.16, 564.73 421.72, 563.04 422.60 C 561.36 423.49, 560.38 423.85, 558.36 424.41 C 556.35 424.97, 555.21 425.19, 552.96 425.39 C 550.71 425.60, 549.45 425.61, 547.11 425.43 C 544.78 425.25, 543.56 425.05, 541.29 424.49 C 539.01 423.93, 537.82 423.53, 535.74 422.64 C 533.67 421.74, 532.65 421.18, 530.92 420.01 C 529.19 418.84, 528.42 418.17, 527.09 416.81 C 525.77 415.45, 525.16 414.65, 524.29 413.21 C 523.41 411.77, 523.13 411.02, 522.71 409.61 C 522.29 408.21, 522.25 407.45, 522.19 406.18 C 522.13 404.92, 522.19 404.28, 522.40 403.29 C 522.61 402.30, 522.81 401.90, 523.24 401.22 C 523.67 400.54, 523.93 400.26, 524.56 399.88 C 525.19 399.50, 525.56 399.40, 526.38 399.32 C 527.20 399.24, 527.69 399.27, 528.67 399.49 C 529.66 399.70, 530.24 399.89, 531.31 400.39 C 532.39 400.90, 532.99 401.24, 534.05 402.01 C 535.11 402.78, 535.65 403.25, 536.59 404.23 C 537.54 405.21, 538.03 405.81, 538.78 406.93 C 539.52 408.04, 539.85 408.64, 540.33 409.80 C 540.80 410.96, 541.00 411.59, 541.14 412.72 C 541.28 413.85, 541.33 414.40, 541.02 415.47 C 540.72 416.54, 540.45 417.05, 539.62 418.06 C 538.79 419.08, 538.25 419.63, 536.87 420.55 C 535.49 421.46, 534.63 421.89, 532.72 422.63 C 530.81 423.36, 529.67 423.73, 527.31 424.23 C 524.96 424.73, 523.61 424.92, 520.95 425.13 C 518.29 425.34, 516.80 425.43, 514.03 425.28 C 511.26 425.13, 509.77 424.94, 507.09 424.37 C 504.41 423.80, 503.03 423.34, 500.64 422.42 C 498.26 421.50, 497.10 420.97, 495.16 419.77 C 493.22 418.58, 492.35 417.86, 490.93 416.45 C 489.51 415.03, 488.92 414.23, 488.04 412.70 C 487.16 411.16, 486.89 410.32, 486.54 408.78 C 486.20 407.23, 486.17 406.43, 486.30 404.97 C 486.43 403.51, 486.68 402.77, 487.20 401.48 C 487.73 400.19, 488.14 399.54, 488.94 398.51 C 489.74 397.48, 490.23 397.02, 491.22 396.32 C 492.21 395.61, 492.80 395.34, 493.89 394.98 C 494.98 394.63, 495.56 394.53, 496.67 394.54 C 497.78 394.54, 498.36 394.66, 499.44 395.00 C 500.52 395.34, 501.08 395.60, 502.04 396.24 C 503.01 396.89, 503.49 397.30, 504.28 398.21 C 505.07 399.12, 505.46 399.67, 506.00 400.81 C 506.54 401.95, 506.74 402.60, 506.99 403.93 C 507.24 405.26, 507.29 406.03, 507.25 407.46 C 507.21 408.89, 507.12 409.67, 506.79 411.09 C 506.46 412.50, 506.21 413.24, 505.60 414.53 C 504.99 415.82, 504.63 416.44, 503.74 417.53 C 502.86 418.61, 502.33 419.11, 501.18 419.93 C 500.03 420.75, 499.40 421.11, 497.99 421.63 C 496.59 422.15, 495.80 422.34, 494.16 422.54 C 492.52 422.75, 491.62 422.81, 489.81 422.67 C 488.00 422.53, 487.08 422.35, 485.12 421.83 C 483.17 421.32, 482.13 420.94, 480.05 420.09 C 477.98 419.24, 476.90 418.71, 474.74 417.58 C 472.57 416.46, 471.48 415.79, 469.22 414.45 C 466.97 413.11, 465.79 412.35, 463.46 410.88 C 461.13 409.42, 459.96 408.61, 457.59 407.13 C 455.22 405.65, 453.98 404.89, 451.62 403.50 C 449.25 402.11, 448.03 401.43, 445.77 400.20 C 443.52 398.98, 442.40 398.39, 440.33 397.38 C 438.26 396.37, 437.22 395.89, 435.44 395.15 C 433.66 394.42, 432.84 393.99, 431.45 393.72 C 430.05 393.45, 429.35 393.45, 428.45 393.80 C 427.54 394.16, 427.14 394.80, 426.91 395.51 C 426.67 396.21, 426.76 396.83, 427.28 397.33 C 427.80 397.83, 428.32 397.95, 429.52 398.01 C 430.71 398.06, 431.54 397.92, 433.25 397.59 C 434.95 397.26, 436.01 397.02, 438.05 396.36 C 440.09 395.70, 441.27 395.28, 443.45 394.29 C 445.63 393.29, 446.83 392.71, 448.95 391.39 C 451.07 390.07, 452.17 389.31, 454.05 387.68 C 455.93 386.04, 456.88 385.12, 458.36 383.23 C 459.84 381.33, 460.52 380.28, 461.44 378.20 C 462.37 376.12, 462.70 374.99, 462.98 372.85 C 463.27 370.71, 463.26 369.58, 462.87 367.52 C 462.47 365.45, 462.07 364.38, 461.01 362.52 C 459.95 360.67, 459.18 359.78, 457.55 358.26 C 455.92 356.74, 454.92 356.05, 452.87 354.92 C 450.82 353.79, 449.63 353.30, 447.29 352.62 C 444.96 351.94, 443.65 351.73, 441.19 351.52 C 438.74 351.31, 437.42 351.34, 435.00 351.56 C 432.58 351.77, 431.37 351.97, 429.09 352.60 C 426.82 353.22, 425.58 353.54, 423.63 354.67 C 421.68 355.80, 420.64 356.74, 419.34 358.24 C 418.04 359.74, 417.58 360.73, 417.13 362.17 C 416.68 363.61, 416.66 364.58, 417.07 365.43 C 417.48 366.28, 418.33 366.55, 419.20 366.42" style="stroke:#ffffff; fill:#ffffff;"/></svg>