<svg xmlns="http://www.w3.org/2000/svg" id="canvas" viewBox="266.558 287.894 771.283 206.791"><path d="M 289.54,319.21 C 288.15 320.31, 287.58 321.62, 287.28 324.13 C 286.98 326.63, 287.57 328.19, 288.03 331.74 C 288.49 335.30, 289.04 337.52, 289.58 341.91 C 290.11 346.30, 290.34 348.69, 290.71 353.68 C 291.09 358.66, 291.20 361.37, 291.44 366.83 C 291.67 372.29, 291.73 375.21, 291.91 380.98 C 292.09 386.74, 292.16 389.76, 292.36 395.65 C 292.56 401.55, 292.69 404.62, 292.90 410.45 C 293.12 416.27, 293.24 419.25, 293.43 424.79 C 293.61 430.33, 293.74 433.11, 293.83 438.16 C 293.91 443.21, 293.95 445.69, 293.85 450.04 C 293.75 454.39, 293.16 456.75, 293.33 459.91 C 293.51 463.07, 294.03 464.07, 294.72 465.84 C 295.40 467.61, 295.81 468.18, 296.77 468.76 C 297.73 469.33, 298.56 469.33, 299.50 468.71 C 300.43 468.09, 300.86 467.49, 301.45 465.66 C 302.04 463.83, 302.52 462.74, 302.45 459.56 C 302.38 456.37, 301.57 454.06, 301.10 449.73 C 300.63 445.39, 300.46 442.92, 300.09 437.88 C 299.72 432.84, 299.56 430.06, 299.25 424.53 C 298.94 419.00, 298.79 416.03, 298.54 410.22 C 298.29 404.41, 298.17 401.36, 298.01 395.48 C 297.86 389.61, 297.83 386.61, 297.77 380.85 C 297.71 375.09, 297.71 372.17, 297.70 366.69 C 297.69 361.21, 297.67 358.49, 297.73 353.45 C 297.78 348.41, 297.87 345.98, 297.96 341.49 C 298.06 337.01, 298.26 334.69, 298.20 331.02 C 298.14 327.34, 298.46 325.58, 297.66 323.10 C 296.87 320.62, 295.85 319.40, 294.23 318.62 C 292.60 317.85, 290.93 318.11, 289.54 319.21" style="stroke: black; fill: black;"/><path d="M 274.63,319.04 C 276.33 319.08, 277.21 318.13, 278.80 316.92 C 280.39 315.71, 280.86 314.92, 282.59 312.99 C 284.32 311.05, 284.89 309.31, 287.43 307.26 C 289.97 305.20, 291.60 304.30, 295.28 302.71 C 298.96 301.12, 301.31 300.33, 305.83 299.30 C 310.34 298.28, 312.89 297.90, 317.84 297.59 C 322.79 297.28, 325.53 297.23, 330.58 297.75 C 335.62 298.28, 338.29 298.79, 343.06 300.21 C 347.82 301.62, 350.29 302.63, 354.41 304.84 C 358.53 307.05, 360.51 308.44, 363.65 311.25 C 366.79 314.06, 368.12 315.67, 370.11 318.89 C 372.10 322.11, 372.77 323.84, 373.59 327.35 C 374.41 330.87, 374.48 332.72, 374.22 336.46 C 373.95 340.20, 373.54 342.24, 372.26 346.06 C 370.98 349.88, 370.07 351.88, 367.81 355.56 C 365.54 359.23, 364.09 361.09, 360.95 364.43 C 357.81 367.77, 355.93 369.44, 352.11 372.26 C 348.30 375.07, 346.08 376.35, 341.87 378.50 C 337.66 380.65, 335.29 381.59, 331.06 383.01 C 326.83 384.43, 324.62 384.95, 320.72 385.60 C 316.81 386.25, 314.77 386.23, 311.54 386.26 C 308.31 386.29, 306.76 385.75, 304.57 385.74 C 302.38 385.74, 301.74 385.90, 300.59 386.25 C 299.43 386.60, 299.28 387.09, 298.80 387.50 C 298.32 387.91, 298.61 388.02, 298.18 388.32 C 297.75 388.61, 296.98 388.41, 296.66 388.96 C 296.35 389.52, 296.14 390.12, 296.61 391.11 C 297.07 392.10, 297.50 393.01, 298.99 393.91 C 300.48 394.81, 301.41 395.37, 304.07 395.62 C 306.72 395.87, 308.60 395.66, 312.25 395.14 C 315.90 394.62, 318.10 394.12, 322.33 393.00 C 326.56 391.88, 328.88 391.26, 333.40 389.55 C 337.93 387.83, 340.42 386.82, 344.95 384.44 C 349.48 382.06, 351.87 380.69, 356.06 377.64 C 360.25 374.58, 362.34 372.80, 365.89 369.15 C 369.44 365.49, 371.14 363.48, 373.81 359.35 C 376.48 355.21, 377.65 352.93, 379.23 348.46 C 380.80 343.99, 381.38 341.55, 381.69 336.98 C 382.00 332.41, 381.89 329.98, 380.78 325.59 C 379.66 321.21, 378.65 318.95, 376.12 315.06 C 373.58 311.17, 371.83 309.33, 368.09 306.15 C 364.35 302.96, 362.06 301.52, 357.41 299.13 C 352.75 296.74, 350.06 295.71, 344.83 294.18 C 339.61 292.65, 336.73 292.11, 331.27 291.47 C 325.81 290.83, 322.90 290.82, 317.54 290.98 C 312.18 291.14, 309.47 291.47, 304.47 292.28 C 299.46 293.10, 296.98 293.72, 292.52 295.07 C 288.05 296.42, 285.88 297.08, 282.16 299.03 C 278.44 300.97, 276.35 302.36, 273.93 304.81 C 271.52 307.26, 270.81 308.90, 270.08 311.29 C 269.35 313.68, 269.36 315.21, 270.27 316.76 C 271.18 318.31, 272.92 319.01, 274.63 319.04" style="stroke: black; fill: black;"/><path d="M 444.63,399.92 C 445.21 398.34, 444.98 397.18, 444.12 395.51 C 443.26 393.85, 442.35 392.93, 440.35 391.59 C 438.34 390.25, 436.87 389.62, 434.11 388.82 C 431.35 388.01, 429.75 387.68, 426.55 387.55 C 423.35 387.41, 421.62 387.67, 418.09 388.13 C 414.55 388.58, 412.68 388.88, 408.88 389.82 C 405.08 390.75, 403.00 391.34, 399.09 392.80 C 395.17 394.26, 393.08 395.13, 389.31 397.12 C 385.53 399.10, 383.60 400.22, 380.20 402.72 C 376.81 405.23, 375.09 406.61, 372.32 409.64 C 369.55 412.66, 368.16 414.35, 366.34 417.86 C 364.51 421.38, 363.73 423.39, 363.20 427.21 C 362.68 431.03, 362.69 433.23, 363.71 436.96 C 364.73 440.68, 365.73 442.68, 368.30 445.83 C 370.87 448.97, 372.73 450.41, 376.54 452.68 C 380.34 454.94, 382.62 455.80, 387.34 457.14 C 392.05 458.48, 394.78 458.91, 400.11 459.36 C 405.43 459.81, 408.45 459.80, 413.96 459.40 C 419.47 458.99, 422.31 458.49, 427.67 457.32 C 433.03 456.15, 435.85 455.37, 440.75 453.55 C 445.65 451.72, 448.03 450.60, 452.15 448.20 C 456.27 445.79, 458.20 444.47, 461.35 441.51 C 464.49 438.56, 465.92 436.86, 467.87 433.40 C 469.82 429.95, 470.48 427.94, 471.09 424.25 C 471.71 420.56, 471.56 418.54, 470.94 414.94 C 470.33 411.34, 469.58 409.46, 468.01 406.25 C 466.44 403.03, 465.28 401.51, 463.09 398.87 C 460.89 396.22, 459.57 394.87, 457.05 393.04 C 454.53 391.21, 452.83 390.40, 450.47 389.71 C 448.11 389.02, 446.93 389.30, 445.27 389.59 C 443.61 389.89, 442.90 390.26, 442.17 391.18 C 441.44 392.10, 441.44 393.11, 441.61 394.20 C 441.78 395.29, 442.23 395.55, 443.03 396.63 C 443.82 397.70, 444.14 398.38, 445.58 399.57 C 447.01 400.76, 448.33 401.25, 450.19 402.57 C 452.06 403.90, 453.19 404.48, 454.90 406.19 C 456.60 407.91, 457.46 408.98, 458.72 411.14 C 459.98 413.30, 460.55 414.59, 461.18 416.98 C 461.81 419.37, 462.04 420.58, 461.87 423.09 C 461.70 425.60, 461.53 426.91, 460.35 429.52 C 459.17 432.13, 458.33 433.59, 455.97 436.14 C 453.61 438.70, 452.04 440.03, 448.53 442.30 C 445.02 444.58, 442.87 445.75, 438.43 447.52 C 433.98 449.30, 431.30 450.09, 426.32 451.18 C 421.35 452.28, 418.65 452.72, 413.55 452.99 C 408.45 453.26, 405.61 453.15, 400.82 452.55 C 396.03 451.94, 393.55 451.35, 389.59 449.97 C 385.63 448.58, 383.84 447.57, 381.01 445.62 C 378.19 443.68, 377.09 442.44, 375.46 440.22 C 373.82 438.00, 373.43 436.89, 372.83 434.53 C 372.24 432.17, 372.17 430.95, 372.47 428.42 C 372.78 425.88, 373.11 424.49, 374.35 421.87 C 375.59 419.26, 376.53 417.83, 378.70 415.34 C 380.86 412.85, 382.27 411.56, 385.16 409.42 C 388.05 407.27, 389.77 406.25, 393.13 404.59 C 396.48 402.93, 398.42 402.19, 401.93 401.10 C 405.45 400.02, 407.37 399.62, 410.71 399.16 C 414.05 398.69, 415.72 398.65, 418.63 398.77 C 421.54 398.90, 422.93 399.34, 425.26 399.78 C 427.59 400.23, 428.50 400.39, 430.28 401.00 C 432.06 401.62, 432.69 402.29, 434.15 402.86 C 435.61 403.42, 436.17 403.71, 437.58 403.82 C 438.99 403.94, 439.79 404.22, 441.20 403.44 C 442.61 402.66, 444.05 401.51, 444.63 399.92" style="stroke: black; fill: black;"/><path d="M 495.53,403.62 C 494.03 404.00, 493.42 404.58, 492.44 406.03 C 491.46 407.48, 490.98 408.56, 490.66 410.87 C 490.33 413.17, 490.44 414.75, 490.80 417.57 C 491.16 420.40, 491.82 421.98, 492.46 425.00 C 493.10 428.02, 493.48 429.64, 493.99 432.69 C 494.50 435.74, 494.49 437.46, 495.00 440.25 C 495.50 443.05, 495.82 444.57, 496.52 446.65 C 497.21 448.74, 497.44 449.72, 498.48 450.67 C 499.53 451.62, 500.47 451.74, 501.74 451.39 C 503.01 451.05, 504.12 450.34, 504.83 448.96 C 505.55 447.57, 505.79 446.51, 505.31 444.47 C 504.84 442.44, 503.90 441.23, 502.47 438.80 C 501.05 436.37, 499.66 435.03, 498.19 432.32 C 496.71 429.61, 496.09 428.07, 495.09 425.23 C 494.09 422.39, 493.67 420.90, 493.18 418.12 C 492.70 415.35, 492.62 413.93, 492.67 411.36 C 492.73 408.80, 492.90 407.59, 493.47 405.31 C 494.03 403.04, 494.39 401.99, 495.49 399.98 C 496.58 397.97, 497.19 397.05, 498.95 395.25 C 500.70 393.45, 501.68 392.51, 504.27 390.99 C 506.86 389.46, 508.47 388.68, 511.89 387.64 C 515.31 386.60, 517.71 386.34, 521.37 385.78 C 525.03 385.22, 527.18 385.58, 530.20 384.86 C 533.23 384.13, 535.27 383.56, 536.48 382.16 C 537.70 380.76, 537.67 379.12, 536.28 377.84 C 534.88 376.57, 532.77 376.02, 529.51 375.77 C 526.25 375.53, 524.01 375.99, 519.96 376.62 C 515.91 377.26, 513.33 377.74, 509.28 378.94 C 505.23 380.13, 503.19 380.85, 499.72 382.62 C 496.24 384.39, 494.61 385.39, 491.91 387.81 C 489.21 390.22, 487.99 391.69, 486.22 394.68 C 484.46 397.68, 483.88 399.46, 483.08 402.77 C 482.28 406.09, 482.20 407.84, 482.20 411.26 C 482.20 414.68, 482.49 416.46, 483.07 419.87 C 483.66 423.28, 484.22 424.96, 485.13 428.31 C 486.04 431.65, 486.68 433.30, 487.62 436.58 C 488.56 439.86, 488.77 441.81, 489.84 444.71 C 490.90 447.60, 491.33 449.17, 492.95 451.07 C 494.57 452.96, 495.81 453.69, 497.94 454.17 C 500.07 454.65, 501.76 454.33, 503.59 453.49 C 505.43 452.64, 506.29 451.71, 507.11 449.95 C 507.93 448.20, 507.76 447.09, 507.69 444.73 C 507.63 442.36, 507.26 440.91, 506.77 438.15 C 506.27 435.38, 505.69 433.82, 505.24 430.88 C 504.78 427.94, 504.60 426.33, 504.49 423.46 C 504.37 420.59, 504.70 419.12, 504.65 416.54 C 504.61 413.95, 504.69 412.57, 504.27 410.56 C 503.84 408.54, 503.38 407.75, 502.52 406.46 C 501.66 405.18, 501.37 404.69, 499.97 404.12 C 498.57 403.55, 497.04 403.23, 495.53 403.62" style="stroke: black; fill: black;"/><path d="M 579.43,334.76 C 577.84 335.49, 577.17 336.57, 576.28 338.70 C 575.40 340.82, 575.02 342.35, 575.00 345.40 C 574.99 348.45, 575.68 350.38, 576.21 353.95 C 576.73 357.53, 577.10 359.36, 577.62 363.28 C 578.14 367.20, 578.29 369.25, 578.82 373.56 C 579.35 377.88, 579.65 380.26, 580.26 384.87 C 580.87 389.48, 581.19 391.90, 581.89 396.61 C 582.58 401.31, 582.98 403.74, 583.72 408.40 C 584.47 413.05, 584.85 415.39, 585.60 419.90 C 586.35 424.40, 586.78 426.68, 587.47 430.92 C 588.17 435.16, 588.52 437.27, 589.06 441.09 C 589.59 444.91, 589.54 447.00, 590.15 450.04 C 590.77 453.07, 591.20 454.43, 592.13 456.28 C 593.07 458.13, 593.87 458.48, 594.83 459.28 C 595.79 460.08, 596.07 460.22, 596.93 460.29 C 597.79 460.37, 598.44 460.16, 599.13 459.65 C 599.82 459.14, 599.96 458.89, 600.37 457.73 C 600.78 456.57, 601.28 455.86, 601.19 453.86 C 601.09 451.86, 600.69 450.62, 599.90 447.73 C 599.11 444.83, 598.25 443.04, 597.23 439.39 C 596.22 435.75, 595.77 433.65, 594.84 429.50 C 593.91 425.35, 593.45 423.09, 592.61 418.65 C 591.76 414.21, 591.36 411.89, 590.62 407.29 C 589.88 402.69, 589.51 400.29, 588.91 395.64 C 588.31 390.98, 588.04 388.58, 587.60 384.03 C 587.16 379.47, 586.93 377.13, 586.70 372.86 C 586.46 368.60, 586.43 366.56, 586.43 362.69 C 586.43 358.81, 586.47 356.93, 586.68 353.49 C 586.90 350.06, 587.46 348.36, 587.50 345.51 C 587.54 342.67, 587.52 341.36, 586.87 339.27 C 586.21 337.18, 585.72 335.96, 584.23 335.06 C 582.74 334.15, 581.02 334.03, 579.43 334.76" style="stroke: black; fill: black;"/><path d="M 558.07,410.29 C 559.29 411.36, 560.20 411.46, 562.33 411.45 C 564.47 411.45, 565.61 411.03, 568.73 410.26 C 571.85 409.48, 573.88 408.54, 577.93 407.59 C 581.99 406.64, 584.39 406.23, 588.99 405.52 C 593.59 404.81, 596.13 404.56, 600.94 404.04 C 605.76 403.51, 608.37 403.27, 613.08 402.87 C 617.78 402.48, 620.15 402.30, 624.47 402.07 C 628.79 401.83, 631.11 401.83, 634.69 401.71 C 638.26 401.59, 639.90 401.82, 642.35 401.49 C 644.79 401.15, 645.53 400.71, 646.92 400.03 C 648.30 399.34, 648.68 398.82, 649.27 398.07 C 649.85 397.32, 649.87 396.94, 649.83 396.26 C 649.80 395.58, 649.41 395.22, 649.09 394.68 C 648.77 394.13, 648.87 394.02, 648.24 393.54 C 647.61 393.06, 647.33 392.62, 645.96 392.28 C 644.59 391.94, 643.81 391.68, 641.39 391.83 C 638.97 391.97, 637.39 392.46, 633.87 393.01 C 630.34 393.56, 628.06 394.01, 623.77 394.58 C 619.48 395.16, 617.13 395.40, 612.42 395.88 C 607.72 396.37, 605.12 396.60, 600.26 397.00 C 595.41 397.41, 592.88 397.59, 588.15 397.91 C 583.42 398.23, 580.95 398.31, 576.61 398.61 C 572.26 398.90, 569.90 398.74, 566.41 399.37 C 562.93 400.01, 561.22 400.43, 559.19 401.78 C 557.15 403.13, 556.46 404.42, 556.23 406.12 C 556.01 407.82, 556.85 409.22, 558.07 410.29" style="stroke: black; fill: black;"/><path d="M 700.42,363.27 C 701.73 361.98, 702.00 360.52, 701.98 358.37 C 701.96 356.21, 701.61 354.80, 700.32 352.49 C 699.03 350.18, 697.79 348.63, 695.53 346.80 C 693.27 344.98, 691.72 344.39, 689.02 343.37 C 686.32 342.34, 684.91 341.97, 682.02 341.68 C 679.14 341.38, 677.57 341.38, 674.58 341.91 C 671.58 342.44, 669.96 342.91, 667.05 344.33 C 664.14 345.75, 662.57 346.70, 660.04 349.02 C 657.51 351.33, 656.36 352.80, 654.40 355.89 C 652.44 358.98, 651.57 360.75, 650.22 364.46 C 648.88 368.17, 648.31 370.21, 647.67 374.45 C 647.03 378.69, 646.94 381.01, 647.01 385.65 C 647.08 390.29, 647.31 392.74, 648.00 397.65 C 648.70 402.57, 649.23 405.12, 650.49 410.22 C 651.74 415.33, 652.60 418.01, 654.29 423.18 C 655.97 428.34, 656.93 430.95, 658.91 436.05 C 660.89 441.14, 662.00 443.77, 664.17 448.65 C 666.35 453.54, 667.58 455.99, 669.79 460.49 C 672.00 465.00, 673.19 467.17, 675.22 471.16 C 677.25 475.15, 678.20 477.08, 679.93 480.42 C 681.67 483.76, 682.22 485.76, 683.90 487.86 C 685.57 489.97, 686.78 490.20, 688.30 490.94 C 689.82 491.69, 690.47 491.81, 691.49 491.58 C 692.51 491.34, 693.04 490.68, 693.41 489.76 C 693.79 488.84, 693.61 488.47, 693.36 486.96 C 693.10 485.46, 693.41 484.42, 692.15 482.23 C 690.89 480.04, 689.20 478.91, 687.06 476.00 C 684.91 473.09, 683.71 471.37, 681.41 467.68 C 679.11 463.98, 677.88 461.84, 675.56 457.53 C 673.25 453.21, 672.00 450.84, 669.81 446.10 C 667.63 441.36, 666.54 438.80, 664.63 433.84 C 662.72 428.87, 661.81 426.30, 660.26 421.28 C 658.71 416.26, 657.94 413.64, 656.89 408.75 C 655.84 403.85, 655.44 401.42, 655.00 396.82 C 654.56 392.23, 654.50 389.92, 654.70 385.77 C 654.91 381.61, 655.17 379.58, 656.01 376.04 C 656.85 372.50, 657.53 370.90, 658.91 368.08 C 660.28 365.25, 661.18 363.99, 662.88 361.93 C 664.59 359.86, 665.58 359.14, 667.43 357.75 C 669.28 356.35, 670.28 355.81, 672.15 354.94 C 674.01 354.07, 674.97 353.76, 676.76 353.38 C 678.55 353.00, 679.46 352.97, 681.10 353.04 C 682.75 353.12, 683.72 353.25, 684.97 353.76 C 686.21 354.27, 686.51 354.56, 687.34 355.61 C 688.18 356.66, 688.28 357.67, 689.14 359.02 C 689.99 360.37, 690.33 361.22, 691.60 362.38 C 692.86 363.54, 693.69 364.65, 695.46 364.83 C 697.22 365.01, 699.12 364.56, 700.42 363.27" style="stroke: black; fill: black;"/><path d="M 631.46,428.33 C 632.71 429.28, 633.52 429.42, 635.61 429.21 C 637.71 429.01, 638.77 428.41, 641.94 427.31 C 645.11 426.20, 647.06 424.98, 651.46 423.68 C 655.87 422.37, 658.63 421.85, 663.97 420.77 C 669.31 419.69, 672.40 419.18, 678.17 418.28 C 683.95 417.38, 687.03 416.96, 692.86 416.28 C 698.69 415.59, 701.76 415.29, 707.33 414.85 C 712.90 414.41, 715.70 414.29, 720.72 414.08 C 725.74 413.88, 728.16 413.81, 732.42 413.82 C 736.67 413.82, 738.62 414.06, 742.00 414.10 C 745.38 414.14, 746.96 414.43, 749.31 414.02 C 751.65 413.60, 752.44 412.91, 753.73 412.02 C 755.02 411.13, 755.52 410.60, 755.76 409.56 C 756.00 408.53, 755.56 407.61, 754.93 406.84 C 754.30 406.06, 753.89 406.13, 752.62 405.69 C 751.34 405.25, 750.79 404.70, 748.57 404.64 C 746.35 404.58, 744.82 404.99, 741.51 405.40 C 738.20 405.82, 736.25 406.23, 732.01 406.72 C 727.77 407.20, 725.34 407.37, 720.30 407.83 C 715.26 408.30, 712.44 408.50, 706.82 409.05 C 701.20 409.61, 698.10 409.94, 692.21 410.60 C 686.32 411.27, 683.22 411.66, 677.36 412.37 C 671.50 413.08, 668.43 413.50, 662.92 414.15 C 657.40 414.80, 654.58 415.01, 649.79 415.61 C 645.00 416.22, 642.56 416.30, 638.96 417.18 C 635.37 418.06, 633.74 418.58, 631.82 420.03 C 629.91 421.48, 629.45 422.78, 629.38 424.44 C 629.31 426.10, 630.22 427.38, 631.46 428.33" style="stroke: black; fill: black;"/><path d="M 791.88,405.72 C 791.95 404.00, 791.29 402.92, 789.86 401.53 C 788.42 400.15, 787.20 399.51, 784.71 398.79 C 782.22 398.07, 780.48 397.79, 777.42 397.92 C 774.35 398.05, 772.61 398.50, 769.38 399.44 C 766.14 400.38, 764.52 401.14, 761.24 402.62 C 757.96 404.09, 756.21 404.86, 752.99 406.79 C 749.77 408.73, 748.06 409.84, 745.15 412.29 C 742.23 414.73, 740.72 416.10, 738.42 419.02 C 736.12 421.95, 734.98 423.54, 733.66 426.93 C 732.35 430.31, 731.75 432.33, 731.86 435.96 C 731.97 439.58, 732.47 441.77, 734.20 445.07 C 735.93 448.38, 737.43 449.97, 740.51 452.47 C 743.59 454.97, 745.52 455.94, 749.58 457.56 C 753.64 459.18, 756.04 459.78, 760.82 460.58 C 765.60 461.39, 768.32 461.62, 773.47 461.60 C 778.62 461.58, 781.43 461.25, 786.58 460.48 C 791.74 459.71, 794.45 459.13, 799.26 457.75 C 804.07 456.37, 806.46 455.50, 810.63 453.57 C 814.80 451.65, 816.79 450.52, 820.11 448.12 C 823.44 445.73, 825.06 444.55, 827.24 441.61 C 829.42 438.66, 830.26 436.79, 831.03 433.41 C 831.80 430.03, 831.75 428.09, 831.10 424.70 C 830.45 421.32, 829.66 419.43, 827.77 416.48 C 825.88 413.53, 824.32 412.26, 821.66 409.94 C 819.01 407.62, 817.44 406.61, 814.48 404.89 C 811.52 403.17, 809.90 401.85, 806.87 401.33 C 803.84 400.81, 801.10 401.09, 799.33 402.27 C 797.55 403.46, 797.26 405.40, 797.99 407.26 C 798.73 409.11, 800.83 410.11, 803.00 411.56 C 805.17 413.00, 806.57 413.13, 808.84 414.48 C 811.12 415.84, 812.45 416.67, 814.37 418.33 C 816.30 420.00, 817.16 421.04, 818.48 422.80 C 819.81 424.56, 820.40 425.41, 820.98 427.15 C 821.57 428.89, 821.68 429.65, 821.41 431.49 C 821.14 433.34, 820.91 434.32, 819.65 436.37 C 818.39 438.41, 817.56 439.60, 815.11 441.73 C 812.65 443.86, 810.96 445.13, 807.39 447.02 C 803.83 448.91, 801.66 449.84, 797.30 451.19 C 792.94 452.54, 790.36 453.11, 785.61 453.77 C 780.86 454.44, 778.22 454.67, 773.57 454.52 C 768.91 454.37, 766.43 453.99, 762.33 453.02 C 758.24 452.05, 756.19 451.24, 753.08 449.68 C 749.98 448.12, 748.74 447.07, 746.81 445.22 C 744.88 443.37, 744.33 442.33, 743.44 440.43 C 742.55 438.52, 742.40 437.66, 742.36 435.69 C 742.32 433.72, 742.47 432.69, 743.25 430.57 C 744.03 428.45, 744.64 427.24, 746.27 425.08 C 747.90 422.92, 749.07 421.70, 751.40 419.78 C 753.72 417.85, 755.18 416.90, 757.91 415.45 C 760.65 413.99, 762.25 413.39, 765.06 412.51 C 767.87 411.63, 769.45 411.38, 771.97 411.03 C 774.49 410.69, 775.61 410.74, 777.65 410.78 C 779.70 410.81, 780.57 411.10, 782.22 411.20 C 783.86 411.31, 784.43 411.53, 785.89 411.31 C 787.35 411.10, 788.33 411.26, 789.52 410.14 C 790.72 409.03, 791.82 407.45, 791.88 405.72" style="stroke: black; fill: black;"/><path d="M 849.29,342.62 C 847.84 343.15, 847.43 343.86, 846.60 345.40 C 845.77 346.93, 845.27 347.85, 845.16 350.29 C 845.04 352.73, 845.56 354.28, 846.03 357.61 C 846.51 360.94, 847.02 362.93, 847.54 366.94 C 848.05 370.95, 848.17 373.16, 848.63 377.67 C 849.08 382.18, 849.25 384.67, 849.80 389.50 C 850.34 394.33, 850.70 396.87, 851.34 401.81 C 851.99 406.74, 852.29 409.30, 853.04 414.16 C 853.80 419.02, 854.20 421.51, 855.12 426.12 C 856.04 430.73, 856.56 433.03, 857.65 437.22 C 858.73 441.41, 859.30 443.42, 860.56 447.07 C 861.81 450.73, 862.33 452.51, 863.93 455.49 C 865.53 458.47, 866.51 459.99, 868.56 461.97 C 870.60 463.96, 872.14 464.68, 874.16 465.42 C 876.19 466.15, 877.26 465.96, 878.68 465.64 C 880.10 465.33, 880.78 464.82, 881.27 463.86 C 881.76 462.89, 881.36 461.75, 881.13 460.82 C 880.91 459.89, 880.61 459.94, 880.14 459.20 C 879.67 458.46, 879.67 458.01, 878.78 457.12 C 877.89 456.23, 877.00 456.09, 875.70 454.77 C 874.41 453.44, 873.78 452.66, 872.30 450.48 C 870.83 448.31, 869.81 446.98, 868.32 443.90 C 866.83 440.83, 866.12 438.96, 864.85 435.10 C 863.58 431.25, 862.98 429.05, 861.95 424.65 C 860.93 420.25, 860.50 417.84, 859.73 413.10 C 858.96 408.36, 858.68 405.82, 858.11 400.97 C 857.54 396.12, 857.23 393.59, 856.90 388.85 C 856.56 384.10, 856.48 381.69, 856.45 377.24 C 856.41 372.80, 856.48 370.60, 856.70 366.61 C 856.93 362.62, 857.31 360.60, 857.59 357.28 C 857.87 353.95, 858.35 352.36, 858.12 349.96 C 857.88 347.57, 857.27 346.76, 856.42 345.31 C 855.56 343.87, 855.28 343.27, 853.86 342.73 C 852.43 342.19, 850.74 342.08, 849.29 342.62" style="stroke: black; fill: black;"/><path d="M 897.47,402.26 C 896.07 403.11, 895.84 404.00, 895.21 405.75 C 894.58 407.51, 894.28 408.58, 894.32 411.04 C 894.36 413.49, 894.82 415.10, 895.41 418.03 C 896.00 420.96, 896.58 422.52, 897.26 425.69 C 897.95 428.85, 898.26 430.59, 898.85 433.86 C 899.45 437.13, 899.63 438.86, 900.23 442.03 C 900.84 445.20, 900.67 447.02, 901.86 449.72 C 903.06 452.43, 904.35 454.64, 906.20 455.55 C 908.05 456.46, 909.94 455.91, 911.12 454.26 C 912.30 452.61, 912.22 450.15, 912.11 447.30 C 911.99 444.46, 911.14 443.06, 910.54 440.03 C 909.94 437.01, 909.56 435.36, 909.11 432.19 C 908.65 429.01, 908.45 427.30, 908.25 424.14 C 908.05 420.99, 908.27 419.34, 908.11 416.42 C 907.96 413.49, 907.99 411.91, 907.47 409.52 C 906.95 407.13, 906.56 406.06, 905.51 404.46 C 904.46 402.86, 903.82 401.94, 902.21 401.50 C 900.61 401.06, 898.87 401.41, 897.47 402.26" style="stroke: black; fill: black;"/><path d="M 905.29,365.06 C 907.02 365.10, 908.02 364.84, 908.06 364.35 C 908.11 363.86, 907.04 363.27, 905.51 362.61 C 903.98 361.95, 902.10 361.20, 900.41 361.06 C 898.73 360.92, 897.28 361.28, 897.08 361.90 C 896.87 362.52, 897.76 363.53, 899.40 364.16 C 901.04 364.80, 903.55 365.03, 905.29 365.06" style="stroke: black; fill: black;"/><path d="M 987.56,405.27 C 988.09 403.64, 987.81 402.48, 986.89 400.83 C 985.96 399.17, 985.02 398.22, 982.94 396.98 C 980.86 395.75, 979.23 395.19, 976.48 394.63 C 973.72 394.07, 972.19 394.11, 969.18 394.18 C 966.16 394.25, 964.63 394.31, 961.42 394.97 C 958.20 395.63, 956.42 396.19, 953.10 397.47 C 949.78 398.76, 948.03 399.57, 944.82 401.39 C 941.62 403.22, 939.98 404.25, 937.06 406.61 C 934.14 408.97, 932.60 410.26, 930.22 413.18 C 927.84 416.10, 926.64 417.78, 925.14 421.21 C 923.65 424.64, 923.03 426.61, 922.75 430.32 C 922.47 434.03, 922.61 436.15, 923.73 439.77 C 924.85 443.38, 925.84 445.31, 928.36 448.41 C 930.88 451.51, 932.62 452.94, 936.34 455.26 C 940.06 457.58, 942.29 458.54, 946.96 460.00 C 951.63 461.47, 954.31 461.97, 959.68 462.57 C 965.04 463.18, 968.07 463.23, 973.80 463.02 C 979.53 462.81, 982.66 462.46, 988.32 461.52 C 993.99 460.58, 996.96 459.89, 1002.12 458.33 C 1007.27 456.77, 1009.75 455.83, 1014.11 453.73 C 1018.46 451.63, 1020.49 450.46, 1023.89 447.82 C 1027.29 445.19, 1028.96 443.76, 1031.10 440.54 C 1033.24 437.31, 1034.09 435.33, 1034.60 431.70 C 1035.11 428.06, 1034.82 425.87, 1033.64 422.35 C 1032.47 418.83, 1031.25 417.08, 1028.73 414.09 C 1026.21 411.11, 1024.38 409.79, 1021.03 407.44 C 1017.68 405.09, 1015.69 404.13, 1011.98 402.34 C 1008.27 400.55, 1006.13 399.79, 1002.49 398.48 C 998.84 397.17, 996.79 396.21, 993.74 395.78 C 990.69 395.35, 989.33 395.80, 987.25 396.33 C 985.17 396.87, 984.14 397.36, 983.34 398.46 C 982.54 399.57, 982.62 400.72, 983.25 401.86 C 983.87 403.00, 984.78 403.27, 986.47 404.18 C 988.16 405.08, 989.05 405.74, 991.70 406.40 C 994.35 407.07, 996.43 406.69, 999.71 407.50 C 1002.99 408.32, 1004.91 408.99, 1008.08 410.49 C 1011.26 411.99, 1012.95 413.01, 1015.58 414.99 C 1018.20 416.96, 1019.48 418.22, 1021.21 420.35 C 1022.95 422.48, 1023.48 423.57, 1024.26 425.64 C 1025.04 427.70, 1025.22 428.60, 1025.11 430.68 C 1025.00 432.76, 1024.95 433.76, 1023.73 436.03 C 1022.51 438.30, 1021.56 439.67, 1019.02 442.01 C 1016.48 444.35, 1014.78 445.66, 1011.02 447.74 C 1007.27 449.81, 1004.98 450.81, 1000.24 452.37 C 995.50 453.92, 992.65 454.63, 987.33 455.51 C 982.00 456.39, 978.99 456.70, 973.64 456.77 C 968.29 456.85, 965.42 456.67, 960.58 455.89 C 955.74 455.12, 953.34 454.44, 949.44 452.91 C 945.53 451.38, 943.79 450.29, 941.06 448.26 C 938.32 446.23, 937.33 445.00, 935.76 442.75 C 934.20 440.50, 933.82 439.34, 933.22 437.01 C 932.62 434.69, 932.55 433.50, 932.76 431.13 C 932.96 428.76, 933.25 427.51, 934.26 425.16 C 935.27 422.81, 936.03 421.55, 937.81 419.37 C 939.58 417.20, 940.77 416.10, 943.13 414.29 C 945.48 412.48, 946.90 411.63, 949.58 410.32 C 952.26 409.00, 953.76 408.47, 956.52 407.73 C 959.28 406.99, 960.84 406.91, 963.38 406.60 C 965.92 406.29, 967.18 406.13, 969.22 406.18 C 971.26 406.23, 972.00 406.37, 973.57 406.84 C 975.14 407.31, 975.68 407.99, 977.06 408.52 C 978.44 409.04, 979.04 409.38, 980.48 409.47 C 981.93 409.57, 982.85 409.83, 984.27 408.99 C 985.68 408.15, 987.04 406.91, 987.56 405.27" style="stroke: black; fill: black;"/></svg>