<svg xmlns="http://www.w3.org/2000/svg" id="canvas" viewBox="258.143 290.905 851.865 243.182"><path d="M 305.77,307.84 C 304.07 308.27, 302.98 309.14, 301.71 311.34 C 300.44 313.53, 300.33 315.24, 299.41 318.80 C 298.50 322.37, 298.18 324.73, 297.14 329.17 C 296.10 333.61, 295.54 336.01, 294.23 341.02 C 292.91 346.03, 292.02 348.77, 290.56 354.20 C 289.11 359.63, 288.42 362.54, 286.96 368.16 C 285.49 373.79, 284.75 376.74, 283.25 382.33 C 281.75 387.91, 280.92 390.71, 279.45 396.11 C 277.99 401.50, 277.24 404.22, 275.92 409.32 C 274.60 414.43, 274.04 417.01, 272.87 421.63 C 271.70 426.26, 271.15 428.40, 270.06 432.44 C 268.98 436.48, 268.24 438.51, 267.46 441.82 C 266.67 445.14, 266.20 446.69, 266.15 449.03 C 266.10 451.38, 266.68 452.20, 267.20 453.55 C 267.72 454.90, 267.92 455.25, 268.73 455.79 C 269.55 456.33, 270.30 456.50, 271.25 456.24 C 272.21 455.99, 272.60 455.70, 273.51 454.51 C 274.41 453.33, 275.22 452.56, 275.78 450.31 C 276.34 448.07, 275.99 446.57, 276.31 443.30 C 276.62 440.02, 276.76 438.00, 277.35 433.95 C 277.95 429.91, 278.40 427.71, 279.29 423.07 C 280.18 418.43, 280.67 415.85, 281.82 410.75 C 282.97 405.65, 283.66 402.97, 285.05 397.59 C 286.44 392.20, 287.25 389.39, 288.76 383.81 C 290.26 378.23, 291.04 375.25, 292.58 369.67 C 294.13 364.09, 294.84 361.23, 296.48 355.91 C 298.13 350.58, 299.09 347.89, 300.80 343.04 C 302.51 338.18, 303.37 335.85, 305.03 331.62 C 306.68 327.39, 307.76 325.31, 309.08 321.88 C 310.39 318.45, 311.36 317.00, 311.58 314.47 C 311.81 311.94, 311.38 310.54, 310.22 309.21 C 309.05 307.89, 307.47 307.42, 305.77 307.84" style="stroke:#ffffff; fill:#ffffff;"/><path d="M 310.43,324.12 C 309.19 325.22, 309.10 326.25, 308.88 328.19 C 308.65 330.12, 308.56 331.30, 309.31 333.80 C 310.06 336.29, 311.16 337.64, 312.62 340.66 C 314.07 343.67, 315.05 345.38, 316.60 348.88 C 318.14 352.37, 318.87 354.20, 320.33 358.13 C 321.80 362.07, 322.46 364.20, 323.92 368.54 C 325.38 372.88, 326.16 375.30, 327.64 379.83 C 329.12 384.36, 329.85 386.65, 331.32 391.20 C 332.80 395.75, 333.58 398.12, 335.02 402.60 C 336.47 407.08, 337.19 409.37, 338.55 413.62 C 339.91 417.87, 340.67 420.01, 341.82 423.85 C 342.97 427.68, 343.20 429.61, 344.29 432.79 C 345.37 435.97, 345.84 437.69, 347.24 439.74 C 348.65 441.79, 349.83 442.66, 351.33 443.03 C 352.82 443.40, 353.92 442.88, 354.71 441.59 C 355.49 440.31, 355.61 438.98, 355.26 436.59 C 354.92 434.19, 354.20 432.69, 353.00 429.61 C 351.81 426.53, 350.80 424.87, 349.28 421.20 C 347.77 417.53, 346.96 415.41, 345.43 411.25 C 343.89 407.09, 343.12 404.85, 341.61 400.42 C 340.10 395.99, 339.34 393.63, 337.89 389.09 C 336.45 384.55, 335.77 382.26, 334.39 377.71 C 333.02 373.16, 332.30 370.73, 331.03 366.32 C 329.76 361.91, 329.16 359.75, 328.05 355.65 C 326.93 351.56, 326.39 349.62, 325.44 345.85 C 324.50 342.07, 324.12 340.04, 323.31 336.78 C 322.49 333.53, 322.32 331.89, 321.37 329.56 C 320.43 327.24, 319.85 326.52, 318.59 325.15 C 317.33 323.78, 316.71 322.93, 315.08 322.72 C 313.45 322.52, 311.67 323.03, 310.43 324.12" style="stroke:#ffffff; fill:#ffffff;"/><path d="M 261.47,396.76 C 261.93 398.19, 262.47 398.49, 263.90 399.44 C 265.33 400.40, 266.13 401.19, 268.60 401.52 C 271.07 401.86, 272.87 401.38, 276.24 401.11 C 279.61 400.85, 281.58 400.50, 285.45 400.22 C 289.31 399.95, 291.67 399.78, 295.56 399.75 C 299.45 399.71, 301.74 400.20, 304.90 400.06 C 308.07 399.91, 309.30 399.68, 311.41 399.01 C 313.52 398.34, 314.66 397.87, 315.48 396.71 C 316.29 395.55, 316.28 394.38, 315.48 393.22 C 314.67 392.06, 313.57 391.61, 311.45 390.92 C 309.33 390.22, 308.09 389.89, 304.87 389.76 C 301.66 389.64, 299.28 390.17, 295.38 390.28 C 291.48 390.40, 289.12 390.55, 285.35 390.35 C 281.58 390.15, 279.75 389.69, 276.53 389.27 C 273.31 388.85, 271.68 388.16, 269.26 388.25 C 266.83 388.34, 265.93 388.92, 264.40 389.72 C 262.86 390.52, 262.19 390.85, 261.60 392.26 C 261.02 393.67, 261.01 395.32, 261.47 396.76" style="stroke:#ffffff; fill:#ffffff;"/><path d="M 365.96,328.29 C 364.54 328.98, 364.23 329.79, 363.47 331.58 C 362.70 333.37, 362.04 334.39, 362.13 337.24 C 362.21 340.09, 363.23 342.01, 363.90 345.83 C 364.58 349.64, 364.90 351.83, 365.49 356.31 C 366.09 360.79, 366.31 363.33, 366.88 368.22 C 367.46 373.12, 367.74 375.74, 368.36 380.80 C 368.97 385.86, 369.26 388.43, 369.97 393.51 C 370.68 398.58, 371.11 401.27, 371.90 406.16 C 372.69 411.04, 373.15 413.43, 373.93 417.94 C 374.71 422.45, 375.17 424.77, 375.79 428.72 C 376.41 432.67, 376.22 434.94, 377.04 437.70 C 377.87 440.45, 378.83 441.09, 379.92 442.51 C 381.02 443.92, 381.45 444.43, 382.50 444.75 C 383.56 445.06, 384.42 444.84, 385.21 444.07 C 386.00 443.31, 386.12 442.70, 386.45 440.93 C 386.78 439.17, 387.41 438.08, 386.86 435.26 C 386.30 432.44, 384.87 430.60, 383.67 426.85 C 382.46 423.10, 381.89 420.88, 380.84 416.52 C 379.79 412.15, 379.32 409.81, 378.44 405.03 C 377.55 400.24, 377.12 397.60, 376.43 392.61 C 375.74 387.62, 375.47 385.07, 374.98 380.08 C 374.50 375.08, 374.27 372.48, 374.01 367.61 C 373.74 362.75, 373.66 360.23, 373.66 355.77 C 373.66 351.31, 373.72 349.12, 374.00 345.31 C 374.29 341.50, 375.21 339.54, 375.07 336.72 C 374.92 333.89, 374.19 332.91, 373.28 331.19 C 372.38 329.47, 372.01 328.69, 370.54 328.11 C 369.08 327.53, 367.37 327.59, 365.96 328.29" style="stroke:#ffffff; fill:#ffffff;"/><path d="M 421.64,337.99 C 420.20 338.46, 419.87 338.99, 418.90 340.50 C 417.93 342.02, 417.03 342.97, 416.79 345.56 C 416.56 348.14, 417.28 350.05, 417.74 353.41 C 418.20 356.78, 418.63 358.55, 419.10 362.37 C 419.57 366.20, 419.81 368.43, 420.10 372.54 C 420.39 376.65, 420.46 378.71, 420.57 382.92 C 420.68 387.14, 420.66 389.41, 420.65 393.61 C 420.63 397.80, 420.61 399.99, 420.48 403.92 C 420.35 407.84, 420.19 409.84, 419.99 413.25 C 419.79 416.66, 419.27 418.42, 419.48 420.97 C 419.69 423.52, 420.00 424.59, 421.05 426.01 C 422.11 427.44, 423.00 427.86, 424.76 428.10 C 426.51 428.35, 428.09 428.20, 429.82 427.23 C 431.56 426.27, 432.50 425.29, 433.44 423.28 C 434.38 421.26, 434.16 419.79, 434.53 417.16 C 434.89 414.54, 434.58 412.94, 435.27 410.17 C 435.95 407.39, 436.58 405.96, 437.96 403.29 C 439.35 400.63, 440.26 399.29, 442.19 396.84 C 444.12 394.38, 445.13 393.18, 447.63 391.03 C 450.13 388.87, 451.65 387.79, 454.69 386.06 C 457.73 384.33, 459.47 383.51, 462.81 382.36 C 466.16 381.21, 467.89 380.71, 471.42 380.31 C 474.95 379.91, 476.95 379.98, 480.47 380.37 C 483.98 380.77, 485.76 381.15, 489.00 382.28 C 492.24 383.40, 493.89 384.21, 496.67 386.01 C 499.46 387.80, 500.73 388.96, 502.92 391.24 C 505.12 393.52, 506.08 394.81, 507.64 397.41 C 509.20 400.01, 509.86 401.55, 510.74 404.23 C 511.63 406.92, 511.77 408.39, 512.06 410.85 C 512.36 413.31, 512.46 414.48, 512.21 416.53 C 511.96 418.59, 511.74 419.40, 510.81 421.12 C 509.89 422.85, 509.15 423.58, 507.59 425.17 C 506.02 426.76, 505.25 427.63, 503.00 429.05 C 500.76 430.48, 499.46 431.20, 496.36 432.29 C 493.26 433.38, 491.29 433.85, 487.49 434.49 C 483.69 435.13, 481.54 435.34, 477.35 435.48 C 473.17 435.62, 470.78 435.59, 466.57 435.21 C 462.36 434.82, 460.11 434.42, 456.30 433.55 C 452.50 432.69, 450.59 432.10, 447.54 430.90 C 444.49 429.70, 443.24 428.78, 441.05 427.54 C 438.86 426.31, 438.17 425.44, 436.60 424.73 C 435.03 424.01, 434.27 424.12, 433.19 423.97 C 432.11 423.82, 432.03 423.76, 431.20 423.97 C 430.37 424.19, 429.57 424.23, 429.02 425.03 C 428.48 425.83, 428.16 426.50, 428.46 427.98 C 428.76 429.45, 428.96 430.63, 430.52 432.40 C 432.08 434.17, 433.39 435.46, 436.27 436.83 C 439.16 438.20, 441.23 438.34, 444.92 439.25 C 448.62 440.16, 450.55 440.66, 454.75 441.39 C 458.94 442.12, 461.33 442.50, 465.88 442.90 C 470.43 443.30, 472.94 443.38, 477.49 443.38 C 482.03 443.37, 484.30 443.31, 488.60 442.87 C 492.90 442.44, 495.11 442.18, 498.99 441.20 C 502.87 440.23, 504.71 439.65, 507.98 438.01 C 511.25 436.37, 512.87 435.42, 515.35 433.00 C 517.82 430.57, 518.91 428.95, 520.37 425.91 C 521.83 422.86, 522.26 421.10, 522.65 417.79 C 523.05 414.48, 522.90 412.75, 522.35 409.36 C 521.79 405.96, 521.27 404.20, 519.88 400.81 C 518.49 397.42, 517.53 395.59, 515.39 392.43 C 513.25 389.26, 512.00 387.72, 509.17 384.98 C 506.33 382.24, 504.71 380.87, 501.21 378.74 C 497.72 376.61, 495.67 375.65, 491.70 374.33 C 487.73 373.01, 485.60 372.59, 481.37 372.13 C 477.14 371.68, 474.77 371.62, 470.53 372.06 C 466.29 372.50, 464.18 373.06, 460.17 374.33 C 456.16 375.61, 454.14 376.48, 450.49 378.42 C 446.84 380.37, 445.00 381.61, 441.90 384.07 C 438.80 386.53, 437.50 387.92, 434.98 390.73 C 432.46 393.53, 431.33 395.05, 429.29 398.09 C 427.25 401.13, 426.45 402.84, 424.77 405.93 C 423.09 409.01, 422.00 410.61, 420.89 413.51 C 419.78 416.41, 419.15 418.04, 419.21 420.42 C 419.27 422.80, 419.94 424.04, 421.19 425.42 C 422.43 426.80, 423.90 427.28, 425.44 427.33 C 426.97 427.38, 427.92 426.99, 428.86 425.67 C 429.79 424.35, 430.02 423.24, 430.12 420.74 C 430.22 418.23, 429.62 416.53, 429.35 413.16 C 429.09 409.79, 428.95 407.80, 428.79 403.88 C 428.62 399.96, 428.59 397.79, 428.53 393.57 C 428.48 389.36, 428.53 387.07, 428.52 382.81 C 428.51 378.55, 428.47 376.43, 428.49 372.27 C 428.51 368.11, 428.44 365.84, 428.63 362.02 C 428.82 358.20, 429.11 356.44, 429.44 353.19 C 429.78 349.93, 430.45 348.22, 430.29 345.77 C 430.14 343.31, 429.51 342.45, 428.67 340.92 C 427.83 339.39, 427.50 338.72, 426.10 338.13 C 424.69 337.54, 423.08 337.51, 421.64 337.99" style="stroke:#ffffff; fill:#ffffff;"/><path d="M 591.70,377.87 C 593.03 376.51, 593.17 374.80, 593.11 372.70 C 593.06 370.60, 592.48 369.50, 591.45 367.36 C 590.42 365.21, 589.72 363.93, 587.97 361.99 C 586.21 360.04, 585.04 359.02, 582.68 357.62 C 580.33 356.21, 578.93 355.65, 576.20 354.96 C 573.46 354.27, 572.02 354.08, 569.01 354.16 C 566.00 354.25, 564.26 354.35, 561.14 355.39 C 558.02 356.43, 556.42 357.44, 553.40 359.37 C 550.38 361.29, 548.81 362.46, 546.03 365.00 C 543.25 367.53, 541.88 368.99, 539.51 372.03 C 537.13 375.06, 536.01 376.75, 534.17 380.17 C 532.32 383.60, 531.44 385.48, 530.29 389.16 C 529.14 392.85, 528.67 394.83, 528.42 398.59 C 528.16 402.36, 528.16 404.41, 529.00 408.01 C 529.84 411.60, 530.64 413.50, 532.59 416.58 C 534.55 419.66, 535.89 421.13, 538.76 423.41 C 541.63 425.68, 543.46 426.64, 546.94 427.96 C 550.42 429.28, 552.46 429.68, 556.16 429.99 C 559.85 430.31, 561.75 430.15, 565.42 429.55 C 569.09 428.94, 571.05 428.44, 574.51 426.98 C 577.98 425.53, 579.72 424.43, 582.75 422.27 C 585.78 420.11, 587.24 418.90, 589.67 416.20 C 592.10 413.49, 593.22 411.90, 594.91 408.75 C 596.60 405.60, 597.14 403.83, 598.13 400.44 C 599.11 397.05, 599.40 395.22, 599.83 391.81 C 600.25 388.40, 600.88 386.19, 600.25 383.38 C 599.63 380.57, 598.56 378.95, 596.72 377.75 C 594.89 376.55, 593.04 376.57, 591.09 377.37 C 589.14 378.17, 587.79 379.43, 586.97 381.75 C 586.15 384.06, 586.31 385.87, 587.00 388.94 C 587.70 392.01, 589.01 393.69, 590.44 397.10 C 591.87 400.52, 592.56 402.50, 594.15 406.02 C 595.74 409.53, 596.57 411.36, 598.39 414.69 C 600.21 418.02, 601.21 419.57, 603.26 422.66 C 605.30 425.76, 606.37 427.62, 608.64 430.16 C 610.90 432.71, 612.33 434.05, 614.59 435.39 C 616.84 436.72, 618.15 436.72, 619.90 436.83 C 621.65 436.94, 622.46 436.64, 623.34 435.94 C 624.22 435.24, 624.28 434.34, 624.30 433.32 C 624.32 432.30, 624.05 432.14, 623.45 430.86 C 622.86 429.57, 622.78 428.51, 621.33 426.90 C 619.88 425.29, 618.30 424.77, 616.22 422.82 C 614.14 420.88, 612.88 419.68, 610.93 417.18 C 608.98 414.68, 608.05 413.25, 606.48 410.31 C 604.90 407.37, 604.14 405.73, 603.06 402.49 C 601.97 399.25, 601.51 397.39, 601.05 394.11 C 600.59 390.82, 601.29 388.86, 600.75 386.05 C 600.20 383.24, 599.74 381.67, 598.34 380.05 C 596.93 378.43, 595.48 378.03, 593.72 377.95 C 591.97 377.86, 590.72 378.33, 589.55 379.64 C 588.38 380.94, 588.02 382.19, 587.86 384.49 C 587.70 386.79, 588.69 388.46, 588.74 391.14 C 588.80 393.81, 588.70 395.28, 588.14 397.87 C 587.59 400.45, 587.15 401.73, 585.97 404.07 C 584.79 406.41, 584.03 407.53, 582.23 409.56 C 580.44 411.59, 579.29 412.56, 576.98 414.22 C 574.68 415.89, 573.31 416.80, 570.69 417.90 C 568.07 419.00, 566.60 419.34, 563.89 419.74 C 561.17 420.14, 559.76 420.18, 557.11 419.89 C 554.45 419.61, 553.01 419.25, 550.61 418.33 C 548.22 417.41, 547.03 416.75, 545.14 415.29 C 543.25 413.83, 542.46 412.96, 541.17 411.03 C 539.87 409.10, 539.30 408.01, 538.67 405.64 C 538.04 403.26, 537.91 401.90, 538.03 399.16 C 538.15 396.41, 538.41 394.81, 539.27 391.91 C 540.14 389.00, 540.83 387.40, 542.36 384.63 C 543.89 381.86, 544.88 380.44, 546.92 378.06 C 548.95 375.67, 550.18 374.53, 552.55 372.71 C 554.92 370.89, 556.34 370.08, 558.78 368.94 C 561.21 367.79, 562.52 367.58, 564.72 366.98 C 566.92 366.38, 567.94 366.16, 569.78 365.92 C 571.62 365.69, 572.53 365.65, 573.94 365.82 C 575.34 365.99, 575.89 366.09, 576.82 366.78 C 577.75 367.48, 577.86 368.08, 578.59 369.30 C 579.31 370.53, 579.65 371.45, 580.43 372.91 C 581.22 374.37, 581.31 375.29, 582.53 376.61 C 583.74 377.93, 584.66 379.27, 586.49 379.52 C 588.33 379.77, 590.38 379.23, 591.70 377.87" style="stroke:#ffffff; fill:#ffffff;"/><path d="M 626.28,370.44 C 624.85 371.31, 624.56 372.42, 623.99 374.29 C 623.43 376.16, 623.25 377.24, 623.44 379.78 C 623.63 382.33, 624.21 383.99, 624.95 387.01 C 625.69 390.03, 626.41 391.71, 627.13 394.88 C 627.84 398.06, 628.09 399.75, 628.53 402.89 C 628.97 406.03, 628.94 407.79, 629.34 410.60 C 629.75 413.41, 629.93 414.81, 630.55 416.93 C 631.16 419.04, 631.24 420.05, 632.42 421.17 C 633.59 422.29, 634.71 422.68, 636.40 422.53 C 638.10 422.39, 639.60 421.71, 640.89 420.45 C 642.17 419.20, 642.49 418.25, 642.82 416.25 C 643.16 414.26, 642.89 413.13, 642.56 410.48 C 642.24 407.82, 641.48 406.02, 641.20 402.98 C 640.92 399.94, 640.94 398.24, 641.15 395.26 C 641.37 392.29, 641.54 390.88, 642.29 388.11 C 643.05 385.34, 643.63 383.93, 644.94 381.42 C 646.25 378.90, 647.04 377.69, 648.83 375.55 C 650.62 373.41, 651.65 372.41, 653.88 370.73 C 656.11 369.05, 657.44 368.25, 659.97 367.15 C 662.50 366.06, 663.87 365.66, 666.55 365.26 C 669.24 364.86, 670.72 364.87, 673.41 365.17 C 676.10 365.47, 677.47 365.74, 680.00 366.75 C 682.54 367.76, 683.81 368.46, 686.09 370.22 C 688.37 371.99, 689.45 373.05, 691.38 375.57 C 693.32 378.09, 694.27 379.71, 695.78 382.84 C 697.29 385.96, 697.89 387.68, 698.93 391.20 C 699.97 394.72, 700.36 396.68, 700.98 400.44 C 701.60 404.20, 701.68 406.29, 702.03 409.99 C 702.38 413.69, 702.15 415.87, 702.71 418.96 C 703.28 422.04, 703.82 423.41, 704.85 425.41 C 705.87 427.40, 706.55 428.32, 707.84 428.92 C 709.14 429.51, 710.28 429.36, 711.33 428.37 C 712.38 427.39, 712.80 426.20, 713.10 423.99 C 713.40 421.77, 713.28 420.36, 712.84 417.31 C 712.41 414.25, 711.63 412.39, 710.92 408.72 C 710.21 405.05, 710.08 402.92, 709.31 398.95 C 708.55 394.97, 708.21 392.80, 707.09 388.84 C 705.97 384.88, 705.40 382.89, 703.72 379.15 C 702.04 375.41, 701.05 373.40, 698.70 370.15 C 696.35 366.89, 694.98 365.35, 691.99 362.88 C 688.99 360.41, 687.21 359.28, 683.72 357.79 C 680.24 356.30, 678.28 355.89, 674.56 355.43 C 670.85 354.96, 668.83 354.96, 665.14 355.49 C 661.44 356.02, 659.51 356.61, 656.07 358.07 C 652.64 359.54, 650.91 360.61, 647.95 362.83 C 644.98 365.06, 643.61 366.39, 641.25 369.18 C 638.89 371.98, 637.86 373.59, 636.16 376.82 C 634.46 380.04, 633.82 381.89, 632.76 385.31 C 631.69 388.72, 631.48 390.46, 630.85 393.90 C 630.22 397.35, 630.14 399.12, 629.61 402.54 C 629.08 405.96, 628.33 407.94, 628.21 411.00 C 628.10 414.07, 628.21 415.70, 629.03 417.87 C 629.86 420.05, 630.69 420.96, 632.33 421.87 C 633.98 422.79, 635.58 422.81, 637.25 422.45 C 638.93 422.09, 639.86 421.48, 640.70 420.07 C 641.53 418.66, 641.43 417.63, 641.42 415.38 C 641.42 413.13, 641.15 411.65, 640.67 408.82 C 640.18 406.00, 639.55 404.40, 639.02 401.26 C 638.48 398.11, 638.33 396.36, 637.97 393.08 C 637.61 389.80, 637.55 387.95, 637.23 384.87 C 636.90 381.79, 636.96 380.07, 636.34 377.67 C 635.73 375.28, 635.18 374.43, 634.14 372.88 C 633.10 371.33, 632.72 370.42, 631.14 369.93 C 629.57 369.44, 627.71 369.57, 626.28 370.44" style="stroke:#ffffff; fill:#ffffff;"/><path d="M 733.61,373.37 C 732.76 374.61, 732.97 375.12, 733.01 376.56 C 733.05 377.99, 732.98 378.70, 733.82 380.54 C 734.65 382.39, 735.43 383.70, 737.19 385.79 C 738.95 387.88, 740.28 388.82, 742.62 390.99 C 744.95 393.15, 746.25 394.37, 748.86 396.60 C 751.46 398.83, 752.82 400.04, 755.65 402.14 C 758.49 404.23, 759.94 405.26, 763.02 407.07 C 766.10 408.89, 767.79 409.85, 771.05 411.22 C 774.31 412.58, 776.08 413.27, 779.34 413.90 C 782.59 414.53, 784.26 414.51, 787.32 414.35 C 790.38 414.19, 791.85 413.94, 794.64 413.11 C 797.42 412.29, 798.84 411.72, 801.25 410.22 C 803.67 408.71, 804.85 407.67, 806.72 405.59 C 808.58 403.51, 809.33 402.23, 810.58 399.84 C 811.84 397.45, 812.30 396.05, 812.98 393.63 C 813.67 391.21, 813.71 389.84, 814.00 387.74 C 814.28 385.63, 814.68 384.69, 814.39 383.09 C 814.11 381.48, 813.93 380.54, 812.57 379.72 C 811.22 378.90, 809.32 378.49, 807.61 378.99 C 805.89 379.49, 804.77 380.44, 803.99 382.22 C 803.22 384.00, 803.13 385.26, 803.74 387.90 C 804.35 390.55, 805.81 391.99, 807.05 395.44 C 808.29 398.88, 808.89 400.94, 809.95 405.13 C 811.01 409.32, 811.50 411.66, 812.36 416.38 C 813.22 421.11, 813.61 423.60, 814.26 428.74 C 814.91 433.88, 815.16 436.68, 815.59 442.09 C 816.03 447.50, 816.26 450.38, 816.44 455.80 C 816.61 461.22, 816.62 463.97, 816.46 469.18 C 816.30 474.39, 816.15 477.04, 815.64 481.86 C 815.14 486.67, 814.84 488.98, 813.94 493.25 C 813.04 497.52, 812.46 499.64, 811.14 503.20 C 809.83 506.76, 809.01 508.45, 807.38 511.06 C 805.74 513.68, 804.74 514.62, 802.96 516.26 C 801.19 517.89, 800.36 518.43, 798.51 519.24 C 796.67 520.05, 795.84 520.15, 793.75 520.29 C 791.66 520.44, 790.58 520.42, 788.07 519.97 C 785.57 519.52, 783.97 519.13, 781.24 518.04 C 778.50 516.95, 776.98 516.32, 774.41 514.50 C 771.85 512.69, 770.53 511.31, 768.41 508.97 C 766.29 506.62, 765.50 504.71, 763.82 502.79 C 762.13 500.86, 761.25 500.41, 759.99 499.33 C 758.74 498.24, 758.35 497.74, 757.55 497.37 C 756.76 497.00, 756.51 497.05, 756.04 497.48 C 755.56 497.90, 755.28 498.97, 755.19 499.50 C 755.10 500.03, 755.70 501.16, 755.57 500.12 C 755.45 499.08, 755.06 495.29, 754.55 494.32 C 754.05 493.34, 753.61 494.51, 753.06 495.27 C 752.51 496.03, 752.18 497.00, 751.81 498.11 C 751.44 499.22, 751.09 499.52, 751.21 500.82 C 751.32 502.12, 751.63 502.79, 752.40 504.61 C 753.17 506.43, 753.28 507.61, 755.05 509.92 C 756.82 512.23, 758.49 513.66, 761.24 516.17 C 764.00 518.68, 765.64 520.23, 768.83 522.46 C 772.03 524.69, 773.77 525.71, 777.22 527.30 C 780.66 528.89, 782.54 529.69, 786.06 530.40 C 789.59 531.11, 791.47 531.28, 794.86 530.86 C 798.24 530.43, 799.99 529.86, 802.98 528.27 C 805.97 526.69, 807.45 525.56, 809.82 522.94 C 812.20 520.32, 813.15 518.65, 814.86 515.17 C 816.57 511.69, 817.20 509.66, 818.37 505.52 C 819.53 501.39, 819.97 499.11, 820.70 494.49 C 821.43 489.87, 821.63 487.46, 822.01 482.43 C 822.39 477.39, 822.49 474.69, 822.58 469.33 C 822.68 463.97, 822.65 461.15, 822.49 455.61 C 822.32 450.08, 822.10 447.16, 821.75 441.65 C 821.40 436.14, 821.20 433.31, 820.74 428.06 C 820.29 422.80, 819.99 420.24, 819.48 415.37 C 818.98 410.50, 818.64 408.08, 818.23 403.71 C 817.83 399.33, 817.54 397.19, 817.45 393.50 C 817.36 389.80, 818.18 387.91, 817.78 385.24 C 817.38 382.56, 816.83 381.59, 815.46 380.12 C 814.09 378.65, 812.91 378.17, 810.93 377.89 C 808.96 377.61, 807.18 377.93, 805.59 378.73 C 804.00 379.52, 803.62 380.38, 803.00 381.85 C 802.38 383.32, 802.78 384.32, 802.50 386.07 C 802.22 387.81, 802.06 388.81, 801.61 390.57 C 801.17 392.32, 800.95 393.27, 800.28 394.84 C 799.62 396.41, 799.26 397.14, 798.28 398.40 C 797.30 399.67, 796.71 400.24, 795.39 401.17 C 794.06 402.09, 793.34 402.50, 791.64 403.00 C 789.95 403.50, 788.98 403.63, 786.90 403.67 C 784.83 403.72, 783.70 403.62, 781.28 403.22 C 778.86 402.82, 777.45 402.61, 774.81 401.65 C 772.17 400.70, 770.66 399.96, 768.07 398.45 C 765.48 396.94, 764.21 396.04, 761.86 394.12 C 759.51 392.21, 758.36 391.12, 756.34 388.87 C 754.32 386.62, 753.41 385.22, 751.76 382.89 C 750.10 380.55, 749.54 379.18, 748.06 377.17 C 746.58 375.17, 745.80 374.15, 744.35 372.86 C 742.89 371.57, 742.21 371.21, 740.79 370.71 C 739.38 370.21, 738.71 369.83, 737.28 370.36 C 735.84 370.89, 734.47 372.12, 733.61 373.37" style="stroke:#ffffff; fill:#ffffff;"/><path d="M 994.16,335.04 C 992.72 336.14, 992.24 337.58, 991.87 340.03 C 991.49 342.48, 991.84 343.93, 992.27 347.28 C 992.70 350.62, 993.32 352.76, 994.00 356.77 C 994.69 360.78, 994.98 362.96, 995.67 367.32 C 996.36 371.67, 996.69 373.91, 997.46 378.54 C 998.24 383.16, 998.68 385.67, 999.55 390.44 C 1000.41 395.20, 1000.92 397.66, 1001.79 402.37 C 1002.66 407.08, 1003.07 409.51, 1003.89 414.01 C 1004.71 418.50, 1005.27 420.73, 1005.87 424.83 C 1006.47 428.93, 1006.58 430.98, 1006.90 434.48 C 1007.21 437.99, 1006.88 439.94, 1007.44 442.36 C 1008.00 444.78, 1008.88 445.34, 1009.70 446.59 C 1010.51 447.85, 1010.63 448.20, 1011.51 448.64 C 1012.38 449.09, 1013.15 449.28, 1014.09 448.82 C 1015.03 448.36, 1015.50 447.90, 1016.20 446.34 C 1016.91 444.78, 1017.72 443.68, 1017.61 441.02 C 1017.50 438.35, 1016.49 436.56, 1015.64 433.04 C 1014.79 429.52, 1014.32 427.48, 1013.36 423.40 C 1012.41 419.32, 1011.81 417.09, 1010.85 412.63 C 1009.90 408.17, 1009.48 405.78, 1008.59 401.10 C 1007.70 396.42, 1007.21 393.96, 1006.42 389.24 C 1005.63 384.51, 1005.20 382.05, 1004.63 377.49 C 1004.06 372.92, 1003.85 370.75, 1003.57 366.43 C 1003.29 362.11, 1003.32 359.91, 1003.22 355.88 C 1003.13 351.85, 1003.28 349.65, 1003.10 346.29 C 1002.91 342.93, 1003.11 341.44, 1002.30 339.09 C 1001.49 336.74, 1000.67 335.35, 999.04 334.54 C 997.41 333.73, 995.59 333.94, 994.16 335.04" style="stroke:#ffffff; fill:#ffffff;"/><path d="M 975.95,320.87 C 977.61 320.85, 978.30 320.00, 979.83 318.78 C 981.36 317.55, 981.74 316.74, 983.61 314.76 C 985.47 312.79, 986.19 310.99, 989.14 308.89 C 992.09 306.79, 994.02 305.83, 998.35 304.27 C 1002.68 302.71, 1005.47 301.99, 1010.77 301.09 C 1016.07 300.18, 1019.11 299.79, 1024.85 299.73 C 1030.58 299.67, 1033.71 299.87, 1039.47 300.78 C 1045.23 301.69, 1048.34 302.49, 1053.65 304.29 C 1058.95 306.10, 1061.63 307.30, 1065.98 309.78 C 1070.33 312.27, 1072.33 313.79, 1075.40 316.73 C 1078.46 319.67, 1079.65 321.35, 1081.32 324.50 C 1082.99 327.65, 1083.42 329.24, 1083.76 332.47 C 1084.10 335.71, 1083.96 337.36, 1083.01 340.69 C 1082.06 344.03, 1081.28 345.83, 1079.02 349.15 C 1076.76 352.47, 1075.21 354.21, 1071.69 357.30 C 1068.18 360.39, 1065.87 361.96, 1061.45 364.59 C 1057.03 367.22, 1054.52 368.49, 1049.59 370.44 C 1044.66 372.38, 1041.84 373.19, 1036.81 374.33 C 1031.77 375.46, 1029.03 375.72, 1024.42 376.11 C 1019.81 376.51, 1017.51 376.35, 1013.77 376.31 C 1010.03 376.26, 1008.30 375.68, 1005.71 375.89 C 1003.12 376.11, 1001.94 376.41, 1000.84 377.39 C 999.73 378.37, 999.36 379.46, 1000.19 380.81 C 1001.03 382.16, 1002.24 383.46, 1005.01 384.13 C 1007.77 384.81, 1009.96 384.45, 1014.00 384.18 C 1018.05 383.91, 1020.38 383.54, 1025.23 382.78 C 1030.08 382.03, 1032.93 381.72, 1038.25 380.40 C 1043.57 379.08, 1046.56 378.22, 1051.84 376.17 C 1057.12 374.11, 1059.79 372.85, 1064.65 370.11 C 1069.50 367.38, 1072.04 365.84, 1076.10 362.49 C 1080.17 359.14, 1082.14 357.29, 1084.99 353.35 C 1087.84 349.41, 1089.09 347.14, 1090.34 342.79 C 1091.59 338.43, 1091.81 335.93, 1091.24 331.58 C 1090.67 327.23, 1089.79 324.96, 1087.50 321.04 C 1085.20 317.11, 1083.50 315.25, 1079.78 311.96 C 1076.05 308.66, 1073.73 307.17, 1068.86 304.56 C 1063.99 301.96, 1061.13 300.79, 1055.43 298.93 C 1049.73 297.07, 1046.47 296.27, 1040.36 295.27 C 1034.24 294.27, 1030.96 294.02, 1024.86 293.92 C 1018.76 293.83, 1015.60 294.14, 1009.88 294.81 C 1004.15 295.48, 1001.28 296.02, 996.24 297.27 C 991.21 298.52, 988.81 299.19, 984.72 301.06 C 980.62 302.94, 978.47 304.22, 975.77 306.65 C 973.07 309.08, 972.07 310.77, 971.23 313.21 C 970.39 315.65, 970.62 317.33, 971.57 318.87 C 972.51 320.40, 974.30 320.89, 975.95 320.87" style="stroke:#ffffff; fill:#ffffff;"/><path d="M 1105.72,450.96 C 1106.94 451.08, 1107.44 449.98, 1106.57 449.14 C 1105.70 448.29, 1102.57 446.83, 1101.36 446.71 C 1100.14 446.59, 1099.64 447.69, 1100.51 448.54 C 1101.38 449.38, 1104.51 450.84, 1105.72 450.96" style="stroke:#ffffff; fill:#ffffff;"/></svg>